<svg width="180" height="40" viewBox="0 0 180 40" fill="none" xmlns="http://www.w3.org/2000/svg">
<g style="mix-blend-mode:luminosity">
<path fill-rule="evenodd" clip-rule="evenodd" d="M21.7444 0.110062C17.7004 -0.322788 13.6238 0.527703 10.0748 2.54463C6.52586 4.56156 3.67877 7.64592 1.92491 11.3738C0.171054 15.1016 -0.403486 19.2899 0.280266 23.363C0.964018 27.4361 2.8725 31.194 5.74338 34.1202C8.61426 37.0465 12.3066 38.9973 16.3129 39.7047C20.3192 40.4121 24.4428 39.8412 28.1168 38.0706C31.7909 36.3 34.8351 33.4166 36.831 29.8166C38.8268 26.2166 39.6764 22.0769 39.263 17.9664C38.808 13.3973 36.8175 9.12704 33.6266 5.87468C30.4358 2.62233 26.2395 0.586523 21.7444 0.110062V0.110062ZM21.1066 30.584C18.9316 30.8805 16.7199 30.477 14.7823 29.4303C12.8446 28.3835 11.2785 26.7462 10.304 24.7483C9.32944 22.7504 8.9955 20.4924 9.34909 18.2917C9.70269 16.091 10.726 14.0582 12.2753 12.479C13.8246 10.8998 15.8219 9.85356 17.9866 9.48738C20.1512 9.1212 22.3744 9.45346 24.3436 10.4375C26.3128 11.4215 27.9291 13.0077 28.9653 14.9733C30.0015 16.9389 30.4055 19.1851 30.1205 21.396C29.8214 23.7216 28.7762 25.8821 27.1467 27.5431C25.5172 29.2041 23.3943 30.2729 21.1066 30.584V30.584ZM49.7903 0.901284C49.1077 0.902945 48.434 1.05923 47.8182 1.35877C47.2025 1.6583 46.6602 2.09356 46.2309 2.63285C45.8015 3.17215 45.4959 3.80193 45.3363 4.47636C45.1766 5.15079 45.1669 5.8529 45.3079 6.53161C45.7398 8.73042 47.761 10.2328 49.9628 10.2328H62.7403L42.8556 36.972C42.7085 37.1694 42.6185 37.4045 42.5955 37.651C42.5726 37.8975 42.6177 38.1456 42.7258 38.3675C42.8338 38.5894 43.0006 38.7763 43.2073 38.9073C43.4141 39.0383 43.6526 39.1082 43.8963 39.1092H75.0873C77.2877 39.1092 79.3103 37.6072 79.7422 35.408C79.8832 34.7294 79.8736 34.0274 79.7141 33.353C79.5546 32.6787 79.2491 32.0489 78.82 31.5096C78.3909 30.9703 77.8488 30.5349 77.2333 30.2352C76.6177 29.9355 75.9442 29.7789 75.2617 29.7769H59.6933L79.5627 3.05854C79.7112 2.85923 79.8021 2.6218 79.8252 2.37291C79.8483 2.12402 79.8027 1.87351 79.6935 1.64949C79.5843 1.42546 79.4159 1.23678 79.207 1.10463C78.9982 0.972466 78.7573 0.902052 78.5112 0.901284H49.7903V0.901284ZM174.428 1.00892C173.395 1.25843 172.477 1.85858 171.826 2.71012C171.174 3.56167 170.828 4.61362 170.845 5.69205V21.2287L146.07 1.19474C145.875 1.03802 145.642 0.940222 145.395 0.912591C145.148 0.884959 144.899 0.928616 144.676 1.03854C144.453 1.14846 144.265 1.32019 144.133 1.53396C144.002 1.74773 143.932 1.99487 143.933 2.24693V34.3267C143.916 35.4052 144.262 36.4572 144.913 37.3087C145.565 38.1603 146.483 38.7604 147.516 39.0099C148.186 39.1598 148.881 39.1548 149.55 38.9954C150.218 38.8359 150.843 38.526 151.378 38.0885C151.912 37.651 152.344 37.097 152.64 36.4675C152.936 35.8381 153.089 35.1491 153.088 34.4514V18.7803L177.864 38.8146C178.058 38.9712 178.292 39.069 178.538 39.0966C178.785 39.1242 179.034 39.0805 179.257 38.9707C179.48 38.8608 179.668 38.6891 179.8 38.4755C179.931 38.2618 180.001 38.0148 180 37.7628V5.56591C180.001 4.8684 179.847 4.17961 179.551 3.55034C179.255 2.92107 178.824 2.36735 178.289 1.93002C177.754 1.49269 177.13 1.1829 176.461 1.02348C175.793 0.864061 175.098 0.859086 174.428 1.00892V1.00892ZM109.919 9.3396C120.398 9.3396 128.228 14.9669 128.228 20.0005C128.228 25.0341 120.398 30.6614 109.919 30.6614C99.4396 30.6614 91.6095 25.0341 91.6095 20.0005C91.6095 14.9669 99.4396 9.3396 109.919 9.3396M109.919 0.00846833C94.7505 0.00846833 82.4543 8.95929 82.4543 20.0005C82.4543 31.0418 94.7505 39.9926 109.919 39.9926C125.087 39.9926 137.383 31.0418 137.383 20.0005C137.383 8.95929 125.087 0.00846833 109.919 0.00846833V0.00846833Z" fill="white"/>
</g>
</svg>
