<svg width="40" height="40" viewBox="0 0 40 40" fill="none" xmlns="http://www.w3.org/2000/svg">
<g id="analysis-presentation 1">
<path id="Vector" fill-rule="evenodd" clip-rule="evenodd" d="M2.5 7.79375V26.25C2.5 28.3212 4.17875 30 6.25 30H17.5713L12.7325 36.7738C12.3313 37.335 12.4625 38.1162 13.0237 38.5175C13.585 38.9188 14.3663 38.7875 14.7675 38.2262L18.75 32.65V36.25C18.75 36.94 19.31 37.5 20 37.5C20.69 37.5 21.25 36.94 21.25 36.25V32.65L25.2325 38.2262C25.6338 38.7875 26.415 38.9188 26.9762 38.5175C27.5375 38.1162 27.6687 37.335 27.2675 36.7738L22.4288 30H33.75C35.8213 30 37.5 28.3212 37.5 26.25V7.79375C38.2675 7.1075 38.75 6.11 38.75 5C38.75 2.93 37.07 1.25 35 1.25H5C2.93 1.25 1.25 2.93 1.25 5C1.25 6.11 1.7325 7.1075 2.5 7.79375ZM35 8.75H5V26.25C5 26.94 5.56 27.5 6.25 27.5H33.75C34.44 27.5 35 26.94 35 26.25V8.75ZM20 11.25C16.205 11.25 13.125 14.33 13.125 18.125C13.125 21.92 16.205 25 20 25C23.795 25 26.875 21.92 26.875 18.125C26.875 14.33 23.795 11.25 20 11.25ZM18.75 13.9313C16.9438 14.47 15.625 16.145 15.625 18.125C15.625 20.54 17.585 22.5 20 22.5C22.2025 22.5 24.0263 20.8687 24.33 18.75H20C19.31 18.75 18.75 18.19 18.75 17.5V13.9313ZM21.25 13.9313C22.445 14.2875 23.4263 15.14 23.9538 16.25H21.25V13.9313ZM36.25 5C36.25 5.69 35.69 6.25 35 6.25H5C4.31 6.25 3.75 5.69 3.75 5C3.75 4.31 4.31 3.75 5 3.75H35C35.69 3.75 36.25 4.31 36.25 5Z" fill="#E1E1FF"/>
</g>
</svg>
