<svg width="48" height="39" viewBox="0 0 48 39" fill="none" xmlns="http://www.w3.org/2000/svg">
<g id="analysis 1" clip-path="url(#clip0_202_599)">
<path id="Vector" d="M34.5143 30.69V30.5325C33.2122 30.1369 32.1132 29.2537 31.4466 28.0673C30.78 26.8809 30.5974 25.4829 30.9368 24.165C30.3833 23.6949 29.0828 22.6019 28.5143 22.125V36C28.5131 36.3975 28.3547 36.7783 28.0737 37.0594C27.7926 37.3404 27.4118 37.4988 27.0143 37.5H10.5143V33C10.5144 32.606 10.4369 32.2158 10.2862 31.8518C10.1354 31.4878 9.91446 31.157 9.63586 30.8784C9.35726 30.5998 9.0265 30.3789 8.66248 30.2281C8.29845 30.0774 7.90829 29.9999 7.51429 30H3.01429V9C3.01545 8.60253 3.17386 8.22168 3.45492 7.94062C3.73597 7.65957 4.11683 7.50116 4.51429 7.5H27.0143C27.4118 7.50115 27.7926 7.65956 28.0737 7.94061C28.3547 8.22167 28.5131 8.60253 28.5143 9V16.245C29.5033 17.0746 32.7984 19.8469 33.8393 20.7225C34.4617 20.4447 35.1309 20.2869 35.8118 20.2575L36.0143 19.785V4.5C36.0144 4.106 35.9369 3.71584 35.7862 3.35182C35.6354 2.98779 35.4145 2.65703 35.1359 2.37843C34.8573 2.09983 34.5265 1.87886 34.1625 1.72813C33.7985 1.57741 33.4083 1.49989 33.0143 1.5H10.5143C10.1203 1.49989 9.73014 1.57742 9.36612 1.72814C9.00209 1.87887 8.67133 2.09984 8.39273 2.37844C8.11414 2.65704 7.89316 2.9878 7.74244 3.35182C7.59171 3.71585 7.51419 4.106 7.51429 4.5V6H4.51429C4.1203 5.99989 3.73014 6.07742 3.36612 6.22814C3.00209 6.37887 2.67133 6.59984 2.39273 6.87844C2.11414 7.15704 1.89316 7.4878 1.74244 7.85182C1.59171 8.21585 1.51419 8.606 1.51429 9V30.75C1.51377 30.8487 1.53271 30.9465 1.57003 31.0379C1.60735 31.1293 1.66232 31.2124 1.73179 31.2825L9.23179 38.7825C9.3736 38.9225 9.56503 39.0007 9.76429 39H27.0143C27.4083 39.0001 27.7984 38.9226 28.1625 38.7719C28.5265 38.6211 28.8573 38.4002 29.1359 38.1216C29.4144 37.843 29.6354 37.5122 29.7862 37.1482C29.9369 36.7841 30.0144 36.394 30.0143 36V34.5H33.0143C33.4083 34.5001 33.7984 34.4226 34.1625 34.2719C34.5265 34.1211 34.8573 33.9002 35.1359 33.6216C35.4145 33.343 35.6354 33.0122 35.7862 32.6482C35.9369 32.2841 36.0144 31.894 36.0143 31.5V30.75C35.5118 30.7518 35.0116 30.681 34.5293 30.54C34.5202 30.5895 34.5152 30.6397 34.5143 30.69Z" fill="#E1E1FF"/>
<path id="Vector_2" d="M42.7643 6C41.9687 6.00701 41.1958 6.26615 40.5568 6.74016C39.9177 7.21417 39.4455 7.87863 39.2079 8.638C38.9703 9.39736 38.9797 10.2125 39.2347 10.9662C39.4896 11.7199 39.9771 12.3733 40.6268 12.8325L36.7718 21.825C36.2352 21.7162 35.6813 21.7254 35.1485 21.8518C34.6157 21.9781 34.1168 22.2188 33.6861 22.557L25.0563 15.2933C25.3923 14.6773 25.5486 13.9794 25.5075 13.279C25.4664 12.5785 25.2296 11.9037 24.8239 11.3312C24.4182 10.7587 23.86 10.3116 23.2128 10.0407C22.5655 9.76977 21.8553 9.68595 21.1627 9.79876C20.4702 9.91158 19.8233 10.2165 19.2955 10.6788C18.7677 11.1411 18.3802 11.7423 18.1772 12.414C17.9742 13.0856 17.9638 13.8007 18.1472 14.478C18.3305 15.1553 18.7003 15.7675 19.2144 16.245L14.7894 23.475C13.9156 23.1576 12.9552 23.1761 12.0943 23.5268C11.2334 23.8775 10.5334 24.5354 10.1302 25.373C9.7269 26.2106 9.64908 27.168 9.91181 28.0597C10.1745 28.9514 10.7591 29.7137 11.552 30.1989C12.345 30.684 13.2899 30.8573 14.2034 30.6852C15.1169 30.5131 15.9339 30.0078 16.496 29.2674C17.0581 28.527 17.3252 27.6042 17.2454 26.6781C17.1656 25.7519 16.7447 24.8884 16.0644 24.255L20.4894 17.025C21.0896 17.2411 21.735 17.3008 22.3647 17.1985C22.9944 17.0963 23.5877 16.8354 24.0887 16.4404L32.72 23.704C32.3732 24.3403 32.2181 25.0634 32.2735 25.7859C32.3289 26.5085 32.5925 27.1995 33.0323 27.7755C33.4721 28.3514 34.0693 28.7876 34.7518 29.0314C35.4342 29.2751 36.1727 29.316 36.8778 29.149C37.583 28.982 38.2247 28.6143 38.7253 28.0903C39.2259 27.5664 39.5641 26.9086 39.6988 26.1966C39.8336 25.4846 39.7592 24.7487 39.4847 24.0781C39.2102 23.4074 38.7472 22.8307 38.1519 22.4175L42.0069 13.425C47.4218 14.2447 48.2272 6.28137 42.7643 6Z" fill="#E1E1FF"/>
</g>
<defs>
<clipPath id="clip0_202_599">
<rect width="48" height="39" fill="white"/>
</clipPath>
</defs>
</svg>
