<svg width="13" height="7" viewBox="0 0 13 7" fill="none" xmlns="http://www.w3.org/2000/svg">
<g id="arrow (1) 1" clip-path="url(#clip0_114_368)">
<path id="Vector" fill-rule="evenodd" clip-rule="evenodd" d="M0.189958 0.23269C-0.0635424 0.490417 -0.0635424 0.907235 0.189958 1.16433L5.56156 6.61351C5.67996 6.73549 5.82247 6.83261 5.98042 6.89898C6.13837 6.96535 6.30845 6.99958 6.48033 6.99958C6.65221 6.99958 6.8223 6.96535 6.98025 6.89898C7.13819 6.83261 7.2807 6.73549 7.39911 6.61351L12.8104 1.12487C12.9313 1.00031 12.9993 0.835346 13.0005 0.663494C13.0017 0.491642 12.936 0.325782 12.8169 0.199599C12.758 0.137091 12.6867 0.0870753 12.6073 0.0526508C12.5279 0.0182262 12.4421 0.000125377 12.3553 -0.000530839C12.2685 -0.00118706 12.1824 0.0156153 12.1025 0.0488358C12.0225 0.0820562 11.9504 0.130987 11.8906 0.192599L6.93956 5.21605C6.88035 5.27709 6.80908 5.3257 6.73007 5.35891C6.65107 5.39213 6.56599 5.40926 6.48001 5.40926C6.39403 5.40926 6.30895 5.39213 6.22994 5.35891C6.15094 5.3257 6.07966 5.27709 6.02046 5.21605L1.10841 0.23269C1.04926 0.171669 0.978039 0.123075 0.899089 0.0898682C0.820139 0.0566612 0.735111 0.0395362 0.649183 0.0395361C0.563255 0.0395361 0.478227 0.0566612 0.399277 0.0898682C0.320327 0.123075 0.249107 0.171669 0.189958 0.23269Z" fill="#BDBDE9"/>
</g>
<defs>
<clipPath id="clip0_114_368">
<rect width="7" height="13" fill="white" transform="translate(13) rotate(90)"/>
</clipPath>
</defs>
</svg>
