<svg width="55" height="55" viewBox="0 0 55 55" fill="none" xmlns="http://www.w3.org/2000/svg">
<g id="arrow (2) 1" clip-path="url(#clip0_260_297)">
<path id="Vector" d="M24.383 11.641C24.0503 11.3354 23.6107 11.173 23.1592 11.1891C22.7078 11.2051 22.2808 11.3983 21.9706 11.7267C21.6605 12.0552 21.4921 12.4925 21.5019 12.9442C21.5118 13.3958 21.699 13.8254 22.0232 14.1401L36.1685 27.4999L22.0232 40.8597C21.699 41.1744 21.5118 41.604 21.5019 42.0556C21.4921 42.5073 21.6605 42.9446 21.9706 43.2731C22.2808 43.6016 22.7078 43.7947 23.1592 43.8107C23.6107 43.8268 24.0503 43.6644 24.383 43.3588L39.8518 28.7494C40.0218 28.5887 40.1572 28.395 40.2497 28.1802C40.3422 27.9653 40.39 27.7338 40.39 27.4999C40.39 27.266 40.3422 27.0345 40.2497 26.8196C40.1572 26.6048 40.0218 26.4111 39.8518 26.2504L24.383 11.641Z" fill="url(#paint0_linear_260_297)"/>
<path id="Vector_2" d="M27.5 0C20.1549 0 13.249 2.86086 8.05578 8.05492C2.86086 13.249 0 20.1549 0 27.5C0 34.8451 2.86172 41.751 8.05578 46.9442C13.249 52.1391 20.1549 55 27.5 55C34.8451 55 41.751 52.1391 46.9442 46.9451C52.1391 41.751 55 34.8451 55 27.5C55 20.1549 52.1383 13.249 46.9442 8.05578C41.751 2.86086 34.8451 0 27.5 0ZM44.513 44.5139C39.9687 49.0591 33.9273 51.5625 27.5 51.5625C21.0727 51.5625 15.0313 49.0591 10.4861 44.5139C5.94086 39.9695 3.4375 33.9273 3.4375 27.5C3.4375 21.0727 5.94086 15.0305 10.487 10.4861C15.0313 5.94086 21.0727 3.4375 27.5 3.4375C33.9273 3.4375 39.9687 5.94086 44.5139 10.4861C49.0591 15.0305 51.5625 21.0727 51.5625 27.5C51.5625 33.9273 49.0591 39.9695 44.513 44.5139Z" fill="url(#paint1_linear_260_297)"/>
</g>
<defs>
<linearGradient id="paint0_linear_260_297" x1="21.5015" y1="4.1442" x2="42.1101" y2="4.95588" gradientUnits="userSpaceOnUse">
<stop stop-color="#F71B2C"/>
<stop offset="0.461458" stop-color="#ED1B8D"/>
<stop offset="1" stop-color="#FF7027"/>
</linearGradient>
<linearGradient id="paint1_linear_260_297" x1="2.25846e-07" y1="-11.875" x2="59.8251" y2="-7.80538" gradientUnits="userSpaceOnUse">
<stop stop-color="#F71B2C"/>
<stop offset="0.461458" stop-color="#ED1B8D"/>
<stop offset="1" stop-color="#FF7027"/>
</linearGradient>
<clipPath id="clip0_260_297">
<rect width="55" height="55" fill="white"/>
</clipPath>
</defs>
</svg>
