<svg width="55" height="55" viewBox="0 0 55 55" fill="none" xmlns="http://www.w3.org/2000/svg">
<g id="arrow (2) 2" clip-path="url(#clip0_262_300)">
<path id="Vector" d="M30.617 43.359C30.9497 43.6646 31.3893 43.827 31.8408 43.8109C32.2923 43.7949 32.7193 43.6017 33.0294 43.2733C33.3396 42.9448 33.508 42.5075 33.4981 42.0558C33.4883 41.6042 33.301 41.1746 32.9769 40.8599L18.8316 27.5001L32.9769 14.1403C33.301 13.8256 33.4883 13.396 33.4981 12.9444C33.508 12.4927 33.3396 12.0554 33.0294 11.7269C32.7193 11.3984 32.2923 11.2053 31.8408 11.1893C31.3893 11.1732 30.9497 11.3356 30.617 11.6412L15.1483 26.2506C14.9783 26.4113 14.8429 26.605 14.7504 26.8198C14.6578 27.0347 14.6101 27.2662 14.6101 27.5001C14.6101 27.734 14.6578 27.9655 14.7504 28.1804C14.8429 28.3952 14.9783 28.5889 15.1483 28.7496L30.617 43.359Z" fill="url(#paint0_linear_262_300)"/>
<path id="Vector_2" d="M27.5 55C34.8451 55 41.751 52.1391 46.9442 46.9451C52.1391 41.751 55 34.8451 55 27.5C55 20.1549 52.1383 13.249 46.9442 8.05578C41.751 2.86086 34.8451 -1.762e-06 27.5 -2.40413e-06C20.1549 -3.04625e-06 13.249 2.86086 8.05579 8.05492C2.86086 13.249 3.04625e-06 20.1549 2.40413e-06 27.5C1.762e-06 34.8451 2.86172 41.751 8.05578 46.9442C13.249 52.1391 20.1549 55 27.5 55ZM10.487 10.4861C15.0313 5.94086 21.0727 3.4375 27.5 3.4375C33.9273 3.4375 39.9687 5.94086 44.5139 10.4861C49.0591 15.0305 51.5625 21.0727 51.5625 27.5C51.5625 33.9273 49.0591 39.9695 44.513 44.5139C39.9687 49.0591 33.9273 51.5625 27.5 51.5625C21.0727 51.5625 15.0313 49.0591 10.4861 44.5139C5.94086 39.9695 3.4375 33.9273 3.4375 27.5C3.4375 21.0727 5.94086 15.0305 10.487 10.4861Z" fill="url(#paint1_linear_262_300)"/>
</g>
<defs>
<linearGradient id="paint0_linear_262_300" x1="33.4985" y1="50.8558" x2="12.8899" y2="50.0441" gradientUnits="userSpaceOnUse">
<stop stop-color="#F71B2C"/>
<stop offset="0.461458" stop-color="#ED1B8D"/>
<stop offset="1" stop-color="#FF7027"/>
</linearGradient>
<linearGradient id="paint1_linear_262_300" x1="55" y1="66.875" x2="-4.82507" y2="62.8054" gradientUnits="userSpaceOnUse">
<stop stop-color="#F71B2C"/>
<stop offset="0.461458" stop-color="#ED1B8D"/>
<stop offset="1" stop-color="#FF7027"/>
</linearGradient>
<clipPath id="clip0_262_300">
<rect width="55" height="55" fill="white" transform="translate(55 55) rotate(-180)"/>
</clipPath>
</defs>
</svg>
