<svg width="27" height="27" viewBox="0 0 27 27" fill="none" xmlns="http://www.w3.org/2000/svg">
<g clip-path="url(#clip0_245_201)">
<path d="M19.7848 9.35181C19.9711 9.5286 20.0797 9.77217 20.0865 10.029C20.0933 10.2857 19.9978 10.5347 19.8211 10.7211L13.4758 17.4138C13.2493 17.6522 12.9766 17.8421 12.6745 17.972C12.3723 18.1019 12.0469 18.1691 11.718 18.1694H11.6599C11.3212 18.1607 10.9881 18.0812 10.6821 17.9361C10.376 17.7909 10.1037 17.5833 9.88269 17.3266L7.14791 14.1505C6.9802 13.9558 6.8967 13.7025 6.91578 13.4462C6.93485 13.19 7.05494 12.9518 7.24963 12.7841C7.44432 12.6164 7.69765 12.5329 7.95391 12.552C8.21016 12.571 8.44834 12.6911 8.61605 12.8858L11.3508 16.0628C11.3949 16.1143 11.4494 16.1559 11.5106 16.1849C11.5719 16.2138 11.6386 16.2295 11.7064 16.2309C11.7743 16.2347 11.8423 16.2231 11.9052 16.197C11.9681 16.1709 12.0243 16.131 12.0696 16.0803L18.415 9.38766C18.5025 9.29534 18.6074 9.22118 18.7237 9.16941C18.8399 9.11765 18.9652 9.08929 19.0924 9.08596C19.2196 9.08263 19.3463 9.1044 19.4651 9.15001C19.5838 9.19563 19.6925 9.2642 19.7848 9.35181ZM26.0938 13.5C26.0938 15.9908 25.3551 18.4257 23.9713 20.4967C22.5875 22.5677 20.6206 24.1819 18.3194 25.1351C16.0182 26.0883 13.486 26.3377 11.0431 25.8518C8.60014 25.3658 6.35615 24.1664 4.59488 22.4051C2.83361 20.6439 1.63417 18.3999 1.14824 15.9569C0.662308 13.514 0.911707 10.9818 1.8649 8.68058C2.81809 6.37937 4.43226 4.4125 6.50329 3.02868C8.57432 1.64486 11.0092 0.90625 13.5 0.90625C16.8389 0.910096 20.0399 2.23817 22.4009 4.59912C24.7618 6.96007 26.0899 10.1611 26.0938 13.5ZM24.1563 13.5C24.1539 11.3962 23.5298 9.33993 22.3624 7.58969C21.195 5.83945 19.5364 4.47328 17.5949 3.66283C16.732 3.44023 15.8443 3.32777 14.9531 3.32812C12.4882 3.33028 10.1002 4.18692 8.19589 5.75214C6.29163 7.31736 4.98889 9.49434 4.50958 11.9123C4.03027 14.3302 4.40403 16.8395 5.56719 19.0128C6.73036 21.1861 8.61099 22.8889 10.8887 23.8312C12.461 24.2286 14.1033 24.2619 15.6904 23.9286C17.2774 23.5953 18.7675 22.9041 20.0471 21.9077C21.3266 20.9113 22.3619 19.6361 23.074 18.1791C23.7861 16.722 24.1562 15.1217 24.1563 13.5Z" fill="url(#paint0_linear_245_201)"/>
</g>
<defs>
<linearGradient id="paint0_linear_245_201" x1="0.90625" y1="-4.53196" x2="28.3034" y2="-2.66826" gradientUnits="userSpaceOnUse">
<stop stop-color="#F71B2C"/>
<stop offset="0.461458" stop-color="#ED1B8D"/>
<stop offset="1" stop-color="#FF7027"/>
</linearGradient>
<clipPath id="clip0_245_201">
<rect width="27" height="27" fill="white"/>
</clipPath>
</defs>
</svg>
