<svg width="30" height="38" viewBox="0 0 30 38" fill="none" xmlns="http://www.w3.org/2000/svg">
<g id="document 1" clip-path="url(#clip0_205_659)">
<path id="Vector" d="M9.50004 15.3333H11.3334C11.8196 15.3333 12.2859 15.1401 12.6297 14.7963C12.9736 14.4525 13.1667 13.9862 13.1667 13.5C13.1667 13.0137 12.9736 12.5474 12.6297 12.2036C12.2859 11.8598 11.8196 11.6666 11.3334 11.6666H9.50004C9.01381 11.6666 8.54749 11.8598 8.20368 12.2036C7.85986 12.5474 7.66671 13.0137 7.66671 13.5C7.66671 13.9862 7.85986 14.4525 8.20368 14.7963C8.54749 15.1401 9.01381 15.3333 9.50004 15.3333ZM9.50004 19C9.01381 19 8.54749 19.1931 8.20368 19.5369C7.85986 19.8807 7.66671 20.3471 7.66671 20.8333C7.66671 21.3195 7.85986 21.7858 8.20368 22.1297C8.54749 22.4735 9.01381 22.6666 9.50004 22.6666H20.5C20.9863 22.6666 21.4526 22.4735 21.7964 22.1297C22.1402 21.7858 22.3334 21.3195 22.3334 20.8333C22.3334 20.3471 22.1402 19.8807 21.7964 19.5369C21.4526 19.1931 20.9863 19 20.5 19H9.50004ZM29.6667 13.39C29.6476 13.2215 29.6107 13.0556 29.5567 12.895V12.73C29.4686 12.5415 29.351 12.3682 29.2084 12.2166L18.2084 1.21663C18.0568 1.07402 17.8835 0.956441 17.695 0.868292C17.6403 0.860519 17.5848 0.860519 17.53 0.868292C17.3438 0.761485 17.1381 0.692924 16.925 0.666626H5.83337C4.37468 0.666626 2.97574 1.24609 1.94429 2.27754C0.912837 3.30899 0.333374 4.70794 0.333374 6.16663V31.8333C0.333374 33.292 0.912837 34.6909 1.94429 35.7224C2.97574 36.7538 4.37468 37.3333 5.83337 37.3333H24.1667C25.6254 37.3333 27.0243 36.7538 28.0558 35.7224C29.0872 34.6909 29.6667 33.292 29.6667 31.8333V13.5C29.6667 13.5 29.6667 13.5 29.6667 13.39ZM18.6667 6.91829L23.415 11.6666H20.5C20.0138 11.6666 19.5475 11.4735 19.2037 11.1297C18.8599 10.7858 18.6667 10.3195 18.6667 9.83329V6.91829ZM26 31.8333C26 32.3195 25.8069 32.7858 25.4631 33.1297C25.1193 33.4735 24.6529 33.6666 24.1667 33.6666H5.83337C5.34714 33.6666 4.88083 33.4735 4.53701 33.1297C4.1932 32.7858 4.00004 32.3195 4.00004 31.8333V6.16663C4.00004 5.6804 4.1932 5.21408 4.53701 4.87026C4.88083 4.52645 5.34714 4.33329 5.83337 4.33329H15V9.83329C15 11.292 15.5795 12.6909 16.611 13.7224C17.6424 14.7538 19.0413 15.3333 20.5 15.3333H26V31.8333ZM20.5 26.3333H9.50004C9.01381 26.3333 8.54749 26.5264 8.20368 26.8703C7.85986 27.2141 7.66671 27.6804 7.66671 28.1666C7.66671 28.6529 7.85986 29.1192 8.20368 29.463C8.54749 29.8068 9.01381 30 9.50004 30H20.5C20.9863 30 21.4526 29.8068 21.7964 29.463C22.1402 29.1192 22.3334 28.6529 22.3334 28.1666C22.3334 27.6804 22.1402 27.2141 21.7964 26.8703C21.4526 26.5264 20.9863 26.3333 20.5 26.3333Z" fill="#E1E1FF"/>
</g>
<defs>
<clipPath id="clip0_205_659">
<rect width="30" height="38" fill="white"/>
</clipPath>
</defs>
</svg>
