<svg width="38" height="38" viewBox="0 0 38 38" fill="none" xmlns="http://www.w3.org/2000/svg">
<g id="favorite 1" clip-path="url(#clip0_226_1689)">
<path id="Vector" d="M26.1253 4.75C23.3703 4.75 20.7262 6.0325 19.0003 8.05125C17.2745 6.0325 14.6303 4.75 11.8753 4.75C6.99074 4.75 3.16699 8.57375 3.16699 13.4583C3.16699 19.4354 8.55033 24.32 16.7045 31.7221L19.0003 33.8042L21.2962 31.7221C29.4503 24.32 34.8337 19.4354 34.8337 13.4583C34.8337 8.57375 31.0099 4.75 26.1253 4.75ZM19.1666 29.3787L19.0003 29.5292L18.8341 29.3787C11.3053 22.5467 6.33366 18.0342 6.33366 13.4583C6.33366 10.2996 8.71658 7.91667 11.8753 7.91667C14.3137 7.91667 16.6887 9.49208 17.5199 11.6533H20.4728C21.312 9.49208 23.687 7.91667 26.1253 7.91667C29.2841 7.91667 31.667 10.2996 31.667 13.4583C31.667 18.0342 26.6953 22.5467 19.1666 29.3787Z" fill="#E1E1FF"/>
</g>
<defs>
<clipPath id="clip0_226_1689">
<rect width="38" height="38" fill="white"/>
</clipPath>
</defs>
</svg>
