<svg width="42" height="42" viewBox="0 0 42 42" fill="none" xmlns="http://www.w3.org/2000/svg">
<g id="group 1">
<path id="27" d="M12.25 17.4999C12.3016 16.9054 12.419 16.3185 12.6 15.7499C12.7688 15.1401 13.0097 14.5526 13.3175 13.9999C12.7827 14.01 12.2568 13.8617 11.8061 13.5737C11.3553 13.2857 10.9997 12.8709 10.7841 12.3814C10.5685 11.8918 10.5024 11.3495 10.5941 10.8225C10.6859 10.2955 10.9314 9.80745 11.2999 9.41964C11.6683 9.03183 12.1431 8.76161 12.6647 8.64295C13.1863 8.52429 13.7313 8.5625 14.2313 8.75277C14.7312 8.94303 15.1637 9.27686 15.4744 9.71228C15.7851 10.1477 15.9602 10.6653 15.9775 11.1999C16.4823 10.8482 17.0218 10.5492 17.5875 10.3074C18.1262 10.0912 18.6824 9.92137 19.25 9.79989C18.9645 8.72333 18.394 7.74367 17.5986 6.96402C16.8032 6.18437 15.8123 5.63357 14.7302 5.36961C13.6482 5.10565 12.515 5.13828 11.4499 5.46408C10.3849 5.78987 9.42733 6.39678 8.67812 7.22091C7.92891 8.04504 7.41574 9.05591 7.19262 10.1471C6.96951 11.2383 7.0447 12.3695 7.41029 13.4216C7.77588 14.4736 8.41834 15.4077 9.27004 16.1254C10.1217 16.8431 11.1512 17.3179 12.25 17.4999ZM13.3 24.4999C13.7898 24.5099 14.277 24.5745 14.7525 24.6924C14.1972 24.1095 13.7207 23.4565 13.335 22.7499C13.0315 22.1929 12.7852 21.6066 12.6 20.9999C10.1286 21.1727 7.81484 22.2768 6.12584 24.0893C4.43683 25.9017 3.4984 28.2875 3.5 30.7649C3.5 31.229 3.68438 31.6741 4.01257 32.0023C4.34075 32.3305 4.78587 32.5149 5.25 32.5149H9.1175C9.29478 31.9156 9.51708 31.3306 9.7825 30.7649C10.0702 30.1572 10.4037 29.5721 10.78 29.0149H7.28C7.65907 27.7119 8.45098 26.5671 9.53663 25.7529C10.6223 24.9387 11.9429 24.4989 13.3 24.4999ZM26.0575 11.2349C26.1017 10.7131 26.297 10.2155 26.6194 9.80289C26.9419 9.39028 27.3776 9.08056 27.8732 8.91158C28.3689 8.74259 28.903 8.72167 29.4103 8.85136C29.9177 8.98106 30.3763 9.25575 30.73 9.64186C31.0837 10.028 31.3173 10.5088 31.4022 11.0255C31.4871 11.5423 31.4196 12.0725 31.208 12.5515C30.9964 13.0305 30.6498 13.4375 30.2106 13.7227C29.7714 14.0079 29.2587 14.1589 28.735 14.1574C29.0428 14.7101 29.2837 15.2976 29.4525 15.9074C29.6335 16.476 29.7509 17.0629 29.8025 17.6574C30.8862 17.4593 31.8975 16.9758 32.7322 16.2568C33.5668 15.5377 34.1946 14.6091 34.5509 13.5666C34.9071 12.5241 34.9789 11.4055 34.7589 10.326C34.5388 9.24649 34.0349 8.24521 33.299 7.42534C32.5632 6.60547 31.622 5.99667 30.5724 5.66168C29.5229 5.32669 28.4031 5.27763 27.3283 5.51956C26.2535 5.76149 25.2627 6.28566 24.4579 7.03803C23.6532 7.79041 23.0636 8.74379 22.75 9.79989C23.3494 9.9162 23.9356 10.0921 24.5 10.3249C25.0462 10.5794 25.5676 10.8841 26.0575 11.2349ZM29.4 20.9999C29.2148 21.6066 28.9685 22.1929 28.665 22.7499C28.2801 23.4668 27.7971 24.1265 27.23 24.7099C27.721 24.5777 28.2266 24.5071 28.735 24.4999C30.0914 24.5018 31.4107 24.9426 32.4958 25.7564C33.5808 26.5702 34.3734 27.7133 34.755 29.0149H31.255C31.6313 29.5721 31.9648 30.1572 32.2525 30.7649C32.5179 31.3306 32.7402 31.9156 32.9175 32.5149H36.75C37.2141 32.5149 37.6593 32.3305 37.9874 32.0023C38.3156 31.6741 38.5 31.229 38.5 30.7649C38.5058 28.2863 37.5687 25.8982 35.8789 24.0849C34.1891 22.2715 31.8729 21.1687 29.4 20.9999ZM15.75 15.1724C15.3029 15.8789 15.0106 16.6722 14.8925 17.4999C14.8298 17.8407 14.7947 18.186 14.7875 18.5324C14.8035 19.507 15.043 20.4649 15.4875 21.3324C16.0859 22.4936 17.035 23.4366 18.2 24.0274C19.0325 24.4651 19.9548 24.7047 20.895 24.7274C20.9447 24.7655 20.9863 24.8131 21.0175 24.8674L21.14 24.7099C22.0678 24.6936 22.9789 24.4598 23.8 24.0274C24.9599 23.4356 25.9032 22.4923 26.495 21.3324C26.9567 20.4707 27.2029 19.51 27.2125 18.5324C27.2053 18.1802 27.1702 17.8291 27.1075 17.4824C26.9774 16.6523 26.6861 15.8556 26.25 15.1374C25.8928 14.5708 25.4432 14.068 24.92 13.6499C23.8024 12.7657 22.4249 12.2737 21 12.2499C20.462 12.2617 19.9273 12.3381 19.4075 12.4774C18.5999 12.7001 17.8445 13.0808 17.185 13.5974C16.6137 14.0294 16.1272 14.5634 15.75 15.1724ZM21 15.7499C21.5365 15.7499 22.0609 15.909 22.507 16.207C22.9531 16.5051 23.3007 16.9287 23.506 17.4244C23.7113 17.92 23.765 18.4654 23.6604 18.9916C23.5557 19.5177 23.2974 20.0011 22.918 20.3804C22.5387 20.7598 22.0554 21.0181 21.5292 21.1228C21.003 21.2274 20.4576 21.1737 19.962 20.9684C19.4663 20.7631 19.0427 20.4154 18.7446 19.9694C18.4466 19.5233 18.2875 18.9989 18.2875 18.4624C18.2875 17.743 18.5733 17.0531 19.082 16.5444C19.5907 16.0357 20.2806 15.7499 21 15.7499ZM29.225 30.7649C28.8166 30.1324 28.3414 29.5457 27.8075 29.0149C26.727 27.9702 25.4221 27.1861 23.9925 26.7224C23.3712 26.4912 22.7252 26.3326 22.0675 26.2499C21.712 26.2292 21.3555 26.2292 21 26.2499H20.055H19.9675C19.3141 26.3198 18.6692 26.4546 18.0425 26.6524C16.6129 27.1161 15.308 27.9002 14.2275 28.9449C13.6936 29.4757 13.2184 30.0624 12.81 30.6949C12.4608 31.2504 12.1621 31.836 11.9175 32.4449C11.4879 33.5617 11.2684 34.7483 11.27 35.9449C11.27 36.409 11.4544 36.8541 11.7826 37.1823C12.1108 37.5105 12.5559 37.6949 13.02 37.6949H29.05C29.5141 37.6949 29.9592 37.5105 30.2874 37.1823C30.6156 36.8541 30.8 36.409 30.8 35.9449C30.8016 34.7483 30.5821 33.5617 30.1525 32.4449C29.893 31.8589 29.5826 31.2967 29.225 30.7649ZM15.75 32.5149C16.2144 31.8236 16.8087 31.2293 17.5 30.7649C17.9255 30.4719 18.3912 30.242 18.8825 30.0824C19.4473 29.8923 20.0369 29.7862 20.6325 29.7674H21.035C21.6306 29.7865 22.2202 29.8926 22.785 30.0824C23.2575 30.2606 23.7093 30.4895 24.1325 30.7649C25.4151 31.5654 26.3563 32.8121 26.775 34.2649H14.98C15.1477 33.6463 15.4072 33.0564 15.75 32.5149Z" fill="#E1E1FF"/>
</g>
</svg>
