<svg width="40" height="40" viewBox="0 0 40 40" fill="none" xmlns="http://www.w3.org/2000/svg">
<g id="growth 1">
<path id="Vector" d="M33.333 6.66675H6.66634C5.78229 6.66675 4.93444 7.01794 4.30932 7.64306C3.6842 8.26818 3.33301 9.11603 3.33301 10.0001V23.3334C3.33301 23.7754 3.5086 24.1994 3.82116 24.5119C4.13372 24.8245 4.55765 25.0001 4.99967 25.0001C5.4417 25.0001 5.86563 24.8245 6.17819 24.5119C6.49075 24.1994 6.66634 23.7754 6.66634 23.3334V10.0001H33.333V30.0001H9.01634L14.9997 24.0167L17.1497 26.1834C17.3046 26.3396 17.4889 26.4636 17.692 26.5482C17.8951 26.6328 18.113 26.6764 18.333 26.6764C18.553 26.6764 18.7709 26.6328 18.974 26.5482C19.1771 26.4636 19.3614 26.3396 19.5163 26.1834L26.6663 19.0167V21.6667C26.6663 22.1088 26.8419 22.5327 27.1545 22.8453C27.4671 23.1578 27.891 23.3334 28.333 23.3334C28.775 23.3334 29.199 23.1578 29.5115 22.8453C29.8241 22.5327 29.9997 22.1088 29.9997 21.6667V15.0001C29.997 14.7823 29.9517 14.5671 29.8663 14.3667C29.6972 13.9595 29.3736 13.6359 28.9663 13.4667C28.766 13.3813 28.5508 13.336 28.333 13.3334H21.6663C21.2243 13.3334 20.8004 13.509 20.4878 13.8216C20.1753 14.1341 19.9997 14.5581 19.9997 15.0001C19.9997 15.4421 20.1753 15.866 20.4878 16.1786C20.8004 16.4912 21.2243 16.6667 21.6663 16.6667H24.3163L18.333 22.6501L16.183 20.4834C16.0281 20.3272 15.8437 20.2032 15.6406 20.1186C15.4375 20.034 15.2197 19.9904 14.9997 19.9904C14.7797 19.9904 14.5618 20.034 14.3587 20.1186C14.1556 20.2032 13.9713 20.3272 13.8163 20.4834L3.81634 30.4834C3.66461 30.6419 3.54566 30.8288 3.46634 31.0334C3.29964 31.4392 3.29964 31.8943 3.46634 32.3001C3.63547 32.7073 3.95909 33.031 4.36634 33.2001C4.56671 33.2855 4.78188 33.3308 4.99967 33.3334H33.333C34.2171 33.3334 35.0649 32.9822 35.69 32.3571C36.3152 31.732 36.6663 30.8841 36.6663 30.0001V10.0001C36.6663 9.11603 36.3152 8.26818 35.69 7.64306C35.0649 7.01794 34.2171 6.66675 33.333 6.66675Z" fill="#E1E1FF"/>
</g>
</svg>
