<svg width="36" height="40" viewBox="0 0 36 40" fill="none" xmlns="http://www.w3.org/2000/svg">
<g clip-path="url(#clip0_205_675)">
<path fill-rule="evenodd" clip-rule="evenodd" d="M8.25326 20.043H6.97746C5.14199 20.043 3.54206 21.2922 3.09689 23.0728L0.224855 34.561C-0.406291 37.0855 1.50314 39.5311 4.10542 39.5311H31.8946C34.4969 39.5311 36.4063 37.0855 35.7752 34.561L32.9031 23.0728C32.458 21.2922 30.858 20.043 29.0226 20.043H27.7468C27.179 21.3909 26.5163 22.7375 25.8084 24.043L29.0226 24.043L31.8946 35.5311L4.10543 35.5311L6.97746 24.043L10.1917 24.043C9.48377 22.7375 8.82104 21.3909 8.25326 20.043Z" fill="#E1E1FF"/>
<path d="M27 12C27 15.1927 25.5663 19.2264 23.6037 23.175C21.7233 26.9582 19.4846 30.4169 18 32.5696C16.5154 30.4169 14.2767 26.9582 12.3963 23.175C10.4337 19.2264 9 15.1927 9 12C9 6.30978 13.1897 2 18 2C22.8103 2 27 6.30978 27 12Z" stroke="#E1E1FF" stroke-width="4" stroke-linecap="round"/>
<circle cx="18" cy="13" r="3" fill="#E1E1FF"/>
</g>
<defs>
<clipPath id="clip0_205_675">
<rect width="36" height="40" fill="white"/>
</clipPath>
</defs>
</svg>
