<svg width="40" height="40" viewBox="0 0 40 40" fill="none" xmlns="http://www.w3.org/2000/svg">
<g id="money 1">
<path id="Vector" d="M36.6666 28.3334H3.33329C2.89127 28.3334 2.46734 28.509 2.15478 28.8216C1.84222 29.1341 1.66663 29.5581 1.66663 30.0001C1.66663 30.4421 1.84222 30.866 2.15478 31.1786C2.46734 31.4912 2.89127 31.6667 3.33329 31.6667H36.6666C37.1087 31.6667 37.5326 31.4912 37.8451 31.1786C38.1577 30.866 38.3333 30.4421 38.3333 30.0001C38.3333 29.5581 38.1577 29.1341 37.8451 28.8216C37.5326 28.509 37.1087 28.3334 36.6666 28.3334ZM36.6666 35.0001H3.33329C2.89127 35.0001 2.46734 35.1757 2.15478 35.4882C1.84222 35.8008 1.66663 36.2247 1.66663 36.6667C1.66663 37.1088 1.84222 37.5327 2.15478 37.8453C2.46734 38.1578 2.89127 38.3334 3.33329 38.3334H36.6666C37.1087 38.3334 37.5326 38.1578 37.8451 37.8453C38.1577 37.5327 38.3333 37.1088 38.3333 36.6667C38.3333 36.2247 38.1577 35.8008 37.8451 35.4882C37.5326 35.1757 37.1087 35.0001 36.6666 35.0001ZM9.99996 11.6667C9.67032 11.6667 9.34809 11.7645 9.07401 11.9476C8.79993 12.1308 8.58631 12.3911 8.46016 12.6956C8.33401 13.0002 8.30101 13.3353 8.36532 13.6586C8.42963 13.9819 8.58836 14.2788 8.82145 14.5119C9.05454 14.745 9.35151 14.9037 9.67481 14.9681C9.99811 15.0324 10.3332 14.9994 10.6378 14.8732C10.9423 14.7471 11.2026 14.5334 11.3857 14.2594C11.5689 13.9853 11.6666 13.6631 11.6666 13.3334C11.6666 12.8914 11.491 12.4675 11.1785 12.1549C10.8659 11.8423 10.442 11.6667 9.99996 11.6667ZM33.3333 1.66675H6.66663C5.34054 1.66675 4.06877 2.19353 3.13109 3.13121C2.19341 4.0689 1.66663 5.34067 1.66663 6.66675V20.0001C1.66663 21.3262 2.19341 22.5979 3.13109 23.5356C4.06877 24.4733 5.34054 25.0001 6.66663 25.0001H33.3333C34.6594 25.0001 35.9311 24.4733 36.8688 23.5356C37.8065 22.5979 38.3333 21.3262 38.3333 20.0001V6.66675C38.3333 5.34067 37.8065 4.0689 36.8688 3.13121C35.9311 2.19353 34.6594 1.66675 33.3333 1.66675ZM35 20.0001C35 20.4421 34.8244 20.866 34.5118 21.1786C34.1992 21.4912 33.7753 21.6667 33.3333 21.6667H6.66663C6.2246 21.6667 5.80068 21.4912 5.48811 21.1786C5.17555 20.866 4.99996 20.4421 4.99996 20.0001V6.66675C4.99996 6.22472 5.17555 5.8008 5.48811 5.48824C5.80068 5.17568 6.2246 5.00008 6.66663 5.00008H33.3333C33.7753 5.00008 34.1992 5.17568 34.5118 5.48824C34.8244 5.8008 35 6.22472 35 6.66675V20.0001ZM20 8.33342C19.0111 8.33342 18.0444 8.62666 17.2221 9.17607C16.3999 9.72547 15.759 10.5064 15.3806 11.42C15.0021 12.3336 14.9031 13.339 15.096 14.3089C15.289 15.2788 15.7652 16.1697 16.4644 16.8689C17.1637 17.5682 18.0546 18.0444 19.0245 18.2373C19.9944 18.4303 20.9997 18.3313 21.9134 17.9528C22.827 17.5744 23.6079 16.9335 24.1573 16.1113C24.7067 15.289 25 14.3223 25 13.3334C25 12.0073 24.4732 10.7356 23.5355 9.79788C22.5978 8.8602 21.326 8.33342 20 8.33342ZM20 15.0001C19.6703 15.0001 19.3481 14.9023 19.074 14.7192C18.7999 14.5361 18.5863 14.2758 18.4602 13.9712C18.334 13.6667 18.301 13.3316 18.3653 13.0083C18.4296 12.685 18.5884 12.388 18.8214 12.1549C19.0545 11.9218 19.3515 11.7631 19.6748 11.6988C19.9981 11.6345 20.3332 11.6675 20.6378 11.7936C20.9423 11.9198 21.2026 12.1334 21.3857 12.4075C21.5689 12.6815 21.6666 13.0038 21.6666 13.3334C21.6666 13.7754 21.491 14.1994 21.1785 14.5119C20.8659 14.8245 20.442 15.0001 20 15.0001ZM30 11.6667C29.6703 11.6667 29.3481 11.7645 29.074 11.9476C28.7999 12.1308 28.5863 12.3911 28.4602 12.6956C28.334 13.0002 28.301 13.3353 28.3653 13.6586C28.4296 13.9819 28.5884 14.2788 28.8214 14.5119C29.0545 14.745 29.3515 14.9037 29.6748 14.9681C29.9981 15.0324 30.3332 14.9994 30.6378 14.8732C30.9423 14.7471 31.2026 14.5334 31.3857 14.2594C31.5689 13.9853 31.6666 13.6631 31.6666 13.3334C31.6666 12.8914 31.491 12.4675 31.1785 12.1549C30.8659 11.8423 30.442 11.6667 30 11.6667Z" fill="#E1E1FF"/>
</g>
</svg>
