<svg width="40" height="40" viewBox="0 0 40 40" fill="none" xmlns="http://www.w3.org/2000/svg">
<g id="person 1">
<path id="Vector" d="M24 24.1667H16C15.1667 24.1667 14.5 24.5001 14 25.1667C13.5 25.6667 13.3334 26.5001 13.3334 27.3334L14.6667 36.8334C14.8334 38.1667 16 39.1667 17.3334 39.1667H22.6667C24 39.1667 25.1667 38.1667 25.3334 36.8334L26.6667 27.3334C26.8334 26.5001 26.5 25.8334 26 25.1667C25.5 24.5001 24.6667 24.1667 24 24.1667ZM20 23.5001C22.8334 23.5001 25.1667 21.1667 25.1667 18.3334C25.1667 15.5001 22.8334 13.1667 20 13.1667C17.1667 13.1667 14.8334 15.5001 14.8334 18.3334C14.8334 21.1667 17.1667 23.5001 20 23.5001Z" fill="#E1E1FF"/>
<path id="Vector_2" d="M28.5 9.83325C23.8333 5.16659 16.1667 5.16659 11.5 9.83325C9.33333 12.1666 8 15.1666 8 18.3333C8 21.4999 9.16667 24.4999 11.5 26.8333C11.8333 27.1666 12.3333 27.1666 12.6667 26.8333C13 26.4999 13 25.9999 12.6667 25.6666C10.6667 23.6666 9.66667 21.1666 9.66667 18.3333C9.66667 15.4999 10.6667 12.9999 12.6667 10.9999C16.6667 6.99992 23.3333 6.99992 27.3333 10.9999C31.3333 14.9999 31.3333 21.6666 27.3333 25.6666C27 25.9999 27 26.4999 27.3333 26.8333C27.5 26.9999 27.6667 26.9999 27.8333 26.9999C28 26.9999 28.1667 26.9999 28.3333 26.8333C33.1667 22.1666 33.1667 14.4999 28.5 9.83325Z" fill="#E1E1FF"/>
<path id="Vector_3" d="M32.3333 6C25.5 -0.833333 14.5 -0.833333 7.66663 6C0.833292 12.8333 0.833292 23.8333 7.66663 30.6667C7.99996 31 8.49996 31 8.83329 30.6667C9.16663 30.3333 9.16663 29.8333 8.83329 29.5C2.66663 23.3333 2.66663 13.3333 8.83329 7C15 0.833333 25 0.833333 31.1666 7C37.3333 13.1667 37.3333 23.3333 31.1666 29.5C30.8333 29.8333 30.8333 30.3333 31.1666 30.6667C31.3333 30.8333 31.5 30.8333 31.6666 30.8333C31.8333 30.8333 32 30.8333 32.1666 30.6667C39.1666 23.8333 39.1666 12.8333 32.3333 6Z" fill="#E1E1FF"/>
</g>
</svg>
