<svg width="38" height="38" viewBox="0 0 38 38" fill="none" xmlns="http://www.w3.org/2000/svg">
<g id="rocket 1" clip-path="url(#clip0_226_1696)">
<path id="Vector" d="M37.8756 1.61095C37.793 0.784862 37.1735 0.165297 36.3474 0.082688C25.8974 -0.743399 18.4213 4.33704 13.7539 10.6979C11.193 9.87182 8.42565 10.1609 5.90608 11.5653C3.46913 12.9283 1.44521 15.2414 0.123473 18.0501C-0.165657 18.7109 -0.0417442 19.4544 0.495212 19.9501C0.990865 20.4457 1.77565 20.5283 2.39521 20.1979C5.03869 18.7936 8.0126 19.0827 9.78869 20.8588L17.0583 28.1283L17.0996 28.1696C18.8756 29.9457 19.1648 32.9196 17.7604 35.5631C17.43 36.1827 17.5539 36.9675 18.0083 37.4631C18.3387 37.7936 18.7517 37.9588 19.2061 37.9588C19.4539 37.9588 19.7017 37.9175 19.9083 37.7936C22.717 36.4718 25.03 34.4066 26.393 32.0109C27.8387 29.4914 28.1278 26.724 27.2604 24.1218C29.1191 22.7588 30.8126 21.2718 32.217 19.6196C36.5952 14.6218 38.4952 8.55008 37.8756 1.61095ZM5.53434 16.0262C7.31043 14.2914 9.54086 13.2175 11.8952 13.6305C11.2343 14.787 10.6974 15.9436 10.2017 17.1001C8.79739 16.3153 7.18652 15.9436 5.53434 16.0262ZM22.0148 32.4653C22.0561 30.7718 21.6843 29.1609 20.9409 27.7566C22.1387 27.2609 23.2952 26.6827 24.4104 26.0631C24.8235 28.4175 23.7909 30.6892 22.0148 32.4653ZM18.7104 25.0718L12.8865 19.2479C15.8191 11.4414 23.0887 3.09791 34.6952 3.30443C35.067 17.1414 23.667 23.1305 18.7104 25.0718ZM29.4083 8.59138C29.9039 9.08704 30.193 9.78921 30.193 10.4914C30.193 11.1936 29.9039 11.8957 29.4083 12.3914C28.9126 12.887 28.2104 13.1762 27.5083 13.1762C26.8061 13.1762 26.1039 12.9283 25.6083 12.3914C25.1126 11.8544 24.8235 11.1936 24.8235 10.4914C24.8235 9.78921 25.1126 9.08704 25.6083 8.59138C26.1039 8.09573 26.8061 7.8066 27.5083 7.8066C28.2104 7.8066 28.9126 8.09573 29.4083 8.59138ZM6.15391 25.774C4.25391 27.674 4.1713 31.474 4.1713 32.2175C4.1713 33.1262 4.91478 33.8696 5.82347 33.8696H5.86478C6.73217 33.8696 10.367 33.7457 12.2256 31.887C13.3822 30.7305 13.63 29.5327 13.63 28.7479C13.63 27.6327 13.1756 26.5588 12.3083 25.6914C10.243 23.5849 7.64086 24.2457 6.15391 25.774ZM9.9126 29.5327C9.49956 29.9457 8.59086 30.2349 7.64086 30.3588C7.80608 29.4088 8.09521 28.5001 8.46695 28.1283C8.75608 27.8392 9.00391 27.674 9.29304 27.674C9.49956 27.674 9.74739 27.7979 9.99521 28.0457C10.243 28.2936 10.367 28.5414 10.367 28.7479C10.3256 28.9957 10.1191 29.3262 9.9126 29.5327Z" fill="#E1E1FF"/>
</g>
<defs>
<clipPath id="clip0_226_1696">
<rect width="38" height="38" fill="white"/>
</clipPath>
</defs>
</svg>
