<svg width="36" height="36" viewBox="0 0 36 36" fill="none" xmlns="http://www.w3.org/2000/svg">
<g id="search 1">
<g id="Layer 2">
<path id="Vector" d="M31.5002 33.7501C31.2047 33.7504 30.912 33.6923 30.639 33.5791C30.366 33.466 30.1181 33.3001 29.9094 33.0908L23.1594 26.3408C22.7496 25.9165 22.5228 25.3481 22.5279 24.7582C22.533 24.1682 22.7697 23.6039 23.1868 23.1867C23.604 22.7696 24.1683 22.5329 24.7583 22.5278C25.3482 22.5227 25.9166 22.7495 26.3409 23.1593L33.0909 29.9093C33.4055 30.224 33.6197 30.6248 33.7065 31.0612C33.7933 31.4976 33.7487 31.95 33.5785 32.361C33.4082 32.7721 33.1199 33.1235 32.75 33.3707C32.38 33.618 31.9451 33.75 31.5002 33.7501Z" fill="#E1E1FF"/>
<path id="Vector_2" d="M16.3127 30.3683C14.0002 30.3685 11.7235 29.7983 9.68407 28.7083C7.64466 27.6182 5.90559 26.042 4.62091 24.1193C3.33623 22.1966 2.54561 19.9867 2.31909 17.6854C2.09257 15.384 2.43715 13.0624 3.3223 10.9261C4.20744 8.78978 5.60583 6.90476 7.39358 5.43803C9.18132 3.97131 11.3032 2.96815 13.5713 2.51745C15.8394 2.06675 18.1836 2.1824 20.3963 2.85418C22.609 3.52595 24.6219 4.7331 26.2565 6.36868C28.2243 8.33445 29.5646 10.8398 30.1077 13.5677C30.6509 16.2955 30.3725 19.1232 29.3079 21.6928C28.2432 24.2624 26.4401 26.4583 24.1268 28.0026C21.8135 29.547 19.0941 30.3703 16.3127 30.3683ZM16.3127 6.75455C14.1014 6.75581 11.9591 7.52372 10.2505 8.92745C8.54199 10.3312 7.37302 12.2839 6.94278 14.4528C6.51254 16.6218 6.84764 18.8728 7.89099 20.8224C8.93435 22.772 10.6214 24.2996 12.6647 25.1448C14.708 25.99 16.9812 26.1006 19.0969 25.4577C21.2126 24.8148 23.04 23.4583 24.2677 21.6192C25.4953 19.78 26.0474 17.5722 25.8297 15.3717C25.612 13.1712 24.6381 11.1142 23.0739 9.5513C22.1866 8.66288 21.1325 7.95848 19.9722 7.47853C18.812 6.99858 17.5683 6.75255 16.3127 6.75455Z" fill="#E1E1FF"/>
</g>
</g>
</svg>
