<svg width="20" height="20" viewBox="0 0 20 20" fill="none" xmlns="http://www.w3.org/2000/svg">
<g id="vk 1" clip-path="url(#clip0_65_37)">
<path id="XMLID 807" fill-rule="evenodd" clip-rule="evenodd" d="M17.2129 11.5374C17.8763 12.1852 18.5765 12.7946 19.1715 13.5076C19.4344 13.8245 19.6832 14.1514 19.8736 14.5192C20.1433 15.0419 19.899 15.6171 19.4303 15.6484L16.5166 15.647C15.7652 15.7094 15.1657 15.4069 14.6616 14.8931C14.2582 14.4822 13.8846 14.0449 13.4967 13.6201C13.3377 13.4465 13.1713 13.2831 12.9724 13.154C12.5747 12.8958 12.2294 12.9749 12.0021 13.3897C11.7706 13.8116 11.7181 14.2789 11.6954 14.7491C11.6642 15.4352 11.4568 15.6156 10.7676 15.647C9.29473 15.7164 7.89691 15.4936 6.59838 14.7506C5.45355 14.0956 4.56579 13.1709 3.79308 12.124C2.28861 10.0856 1.13649 7.84568 0.101007 5.54302C-0.132072 5.02422 0.0383835 4.74574 0.610798 4.73588C1.56132 4.71741 2.5117 4.71873 3.46334 4.73456C3.84966 4.74022 4.10541 4.9618 4.25458 5.32676C4.76884 6.59125 5.39809 7.7943 6.18794 8.90942C6.39829 9.20631 6.61277 9.50319 6.9182 9.71216C7.25609 9.94353 7.51335 9.86684 7.6723 9.49045C7.77317 9.25178 7.81733 8.99472 7.84007 8.7391C7.91537 7.85968 7.92529 6.98177 7.79321 6.10544C7.71213 5.55852 7.40407 5.20447 6.85833 5.10097C6.57985 5.04821 6.62131 4.94458 6.75615 4.78562C6.99035 4.51147 7.21061 4.34082 7.6497 4.34082H10.9426C11.461 4.44313 11.5761 4.67602 11.6471 5.19763L11.6499 8.85534C11.6442 9.05727 11.7508 9.6565 12.1145 9.79016C12.4056 9.88531 12.5975 9.65243 12.7721 9.46784C13.5605 8.63107 14.1232 7.64217 14.6259 6.61819C14.849 6.16793 15.0408 5.70033 15.2267 5.23312C15.3644 4.88642 15.5806 4.71584 15.9711 4.72339L19.1403 4.72622C19.2343 4.72622 19.3294 4.7276 19.4204 4.74317C19.9544 4.83418 20.1007 5.06391 19.9358 5.5854C19.6759 6.40358 19.1703 7.0854 18.6759 7.77038C18.1473 8.50168 17.5821 9.20795 17.058 9.94359C16.5764 10.6154 16.6147 10.954 17.2129 11.5374Z" fill="white"/>
</g>
<defs>
<clipPath id="clip0_65_37">
<rect width="20" height="20" fill="white"/>
</clipPath>
</defs>
</svg>
