<svg width="40" height="40" fill="none" xmlns="http://www.w3.org/2000/svg"><path fill-rule="evenodd" clip-rule="evenodd" d="M2.5 7.794V26.25A3.75 3.75 0 006.25 30h11.321l-4.839 6.774a1.25 1.25 0 002.036 1.452l3.982-5.576v3.6a1.25 1.25 0 002.5 0v-3.6l3.983 5.576a1.25 1.25 0 002.034-1.452L22.43 30H33.75a3.75 3.75 0 003.75-3.75V7.794A3.751 3.751 0 0035 1.25H5a3.751 3.751 0 00-2.5 6.544zM35 8.75H5v17.5c0 .69.56 1.25 1.25 1.25h27.5c.69 0 1.25-.56 1.25-1.25V8.75zm-15 2.5a6.878 6.878 0 00-6.875 6.875A6.878 6.878 0 0020 25a6.878 6.878 0 006.875-6.875A6.878 6.878 0 0020 11.25zm-1.25 2.681A4.377 4.377 0 0020 22.5a4.378 4.378 0 004.33-3.75H20c-.69 0-1.25-.56-1.25-1.25v-3.569zm2.5 0a4.39 4.39 0 012.704 2.319H21.25v-2.319zM36.25 5c0 .69-.56 1.25-1.25 1.25H5a1.25 1.25 0 010-2.5h30c.69 0 1.25.56 1.25 1.25z" fill="#E1E1FF"/></svg>