<svg width="48" height="39" fill="none" xmlns="http://www.w3.org/2000/svg"><g clip-path="url(#clip0_202_599)" fill="#E1E1FF"><path d="M34.514 30.69v-.158a5.28 5.28 0 01-3.577-6.367c-.554-.47-1.854-1.563-2.423-2.04V36a1.505 1.505 0 01-1.5 1.5h-16.5V33a3 3 0 00-3-3h-4.5V9a1.504 1.504 0 011.5-1.5h22.5a1.504 1.504 0 011.5 1.5v7.245c.99.83 4.284 3.602 5.325 4.477a5.412 5.412 0 011.973-.465l.202-.472V4.5a3 3 0 00-3-3h-22.5a3 3 0 00-3 3V6h-3a3 3 0 00-3 3v21.75a.751.751 0 00.218.532l7.5 7.5c.142.14.333.219.532.218h17.25a3 3 0 003-3v-1.5h3a3 3 0 003-3v-.75a5.226 5.226 0 01-1.485-.21c-.009.05-.014.1-.015.15z"/><path d="M42.764 6a3.76 3.76 0 00-2.137 6.832l-3.855 8.993a3.78 3.78 0 00-3.086.732l-8.63-7.264a3.748 3.748 0 10-5.842.952l-4.425 7.23a3.75 3.75 0 101.275.78l4.425-7.23a3.757 3.757 0 003.6-.585l8.631 7.264a3.751 3.751 0 105.432-1.287l3.855-8.992c5.415.82 6.22-7.144.757-7.425z"/></g><defs><clipPath id="clip0_202_599"><path fill="#fff" d="M0 0h48v39H0z"/></clipPath></defs></svg>