<svg width="55" height="55" fill="none" xmlns="http://www.w3.org/2000/svg"><g clip-path="url(#clip0_260_297)"><path d="M24.383 11.641a1.719 1.719 0 00-2.36 2.5L36.17 27.5 22.023 40.86a1.72 1.72 0 002.36 2.499l15.469-14.61a1.719 1.719 0 000-2.499L24.383 11.641z" fill="url(#paint0_linear_260_297)"/><path d="M27.5 0C20.155 0 13.249 2.86 8.056 8.055 2.86 13.249 0 20.155 0 27.5c0 7.345 2.862 14.251 8.056 19.444C13.249 52.14 20.155 55 27.5 55c7.345 0 14.251-2.86 19.444-8.055C52.14 41.751 55 34.845 55 27.5c0-7.345-2.862-14.251-8.056-19.444C41.751 2.86 34.845 0 27.5 0zm17.013 44.514A23.9 23.9 0 0127.5 51.562c-6.427 0-12.469-2.503-17.014-7.048A23.901 23.901 0 013.437 27.5c0-6.427 2.504-12.47 7.05-17.014A23.9 23.9 0 0127.5 3.437c6.427 0 12.469 2.504 17.014 7.05A23.902 23.902 0 0151.562 27.5c0 6.427-2.503 12.47-7.049 17.014z" fill="url(#paint1_linear_260_297)"/></g><defs><linearGradient id="paint0_linear_260_297" x1="21.502" y1="4.144" x2="42.11" y2="4.956" gradientUnits="userSpaceOnUse"><stop stop-color="#F71B2C"/><stop offset=".461" stop-color="#ED1B8D"/><stop offset="1" stop-color="#FF7027"/></linearGradient><linearGradient id="paint1_linear_260_297" x1="0" y1="-11.875" x2="59.825" y2="-7.805" gradientUnits="userSpaceOnUse"><stop stop-color="#F71B2C"/><stop offset=".461" stop-color="#ED1B8D"/><stop offset="1" stop-color="#FF7027"/></linearGradient><clipPath id="clip0_260_297"><path fill="#fff" d="M0 0h55v55H0z"/></clipPath></defs></svg>