<svg width="29" height="17" fill="none" xmlns="http://www.w3.org/2000/svg"><g clip-path="url(#clip0_46_357)"><path fill-rule="evenodd" clip-rule="evenodd" d="M.424.566c-.566.626-.566 1.638 0 2.262l11.982 13.234c.265.296.582.532.935.693a2.678 2.678 0 002.23 0c.353-.16.67-.397.935-.693l12.07-13.33c.27-.302.422-.703.425-1.12a1.704 1.704 0 00-.41-1.127 1.42 1.42 0 00-.467-.357A1.341 1.341 0 0026.998.12c-.179.08-.34.2-.473.35l-11.045 12.2a1.416 1.416 0 01-.467.346 1.338 1.338 0 01-1.115 0 1.417 1.417 0 01-.468-.347L2.472.566a1.415 1.415 0 00-.466-.347 1.338 1.338 0 00-1.115 0C.714.299.556.418.424.566z" fill="#EDEDFF"/></g><defs><clipPath id="clip0_46_357"><path fill="#fff" transform="rotate(90 14.5 14.5)" d="M0 0h17v29H0z"/></clipPath></defs></svg>