<svg width="13" height="7" fill="none" xmlns="http://www.w3.org/2000/svg"><g clip-path="url(#clip0_114_368)"><path fill-rule="evenodd" clip-rule="evenodd" d="M.19.233a.666.666 0 000 .931l5.372 5.45A1.268 1.268 0 006.48 7a1.29 1.29 0 00.92-.386l5.41-5.49A.67.67 0 0012.817.2a.635.635 0 00-.462-.2.646.646 0 00-.464.193L6.94 5.216a.634.634 0 01-.46.193.645.645 0 01-.46-.193L1.108.233A.633.633 0 00.65.04.645.645 0 00.19.233z" fill="#BDBDE9"/></g><defs><clipPath id="clip0_114_368"><path fill="#fff" transform="rotate(90 6.5 6.5)" d="M0 0h7v13H0z"/></clipPath></defs></svg>