<svg width="55" height="55" fill="none" xmlns="http://www.w3.org/2000/svg"><g clip-path="url(#clip0_262_300)"><path d="M30.617 43.359a1.719 1.719 0 002.36-2.5L18.832 27.5l14.145-13.36a1.719 1.719 0 00-2.36-2.499l-15.469 14.61a1.719 1.719 0 000 2.499l15.469 14.609z" fill="url(#paint0_linear_262_300)"/><path d="M27.5 55c7.345 0 14.251-2.86 19.444-8.055C52.14 41.751 55 34.845 55 27.5c0-7.345-2.862-14.251-8.056-19.444C41.751 2.86 34.845 0 27.5 0 20.155 0 13.249 2.86 8.056 8.055 2.86 13.249 0 20.155 0 27.5c0 7.345 2.862 14.251 8.056 19.444C13.249 52.14 20.155 55 27.5 55zM10.487 10.486A23.9 23.9 0 0127.5 3.437c6.427 0 12.469 2.504 17.014 7.05A23.902 23.902 0 0151.562 27.5c0 6.427-2.503 12.47-7.049 17.014A23.9 23.9 0 0127.5 51.562c-6.427 0-12.469-2.503-17.014-7.048A23.901 23.901 0 013.437 27.5c0-6.427 2.504-12.47 7.05-17.014z" fill="url(#paint1_linear_262_300)"/></g><defs><linearGradient id="paint0_linear_262_300" x1="33.498" y1="50.856" x2="12.89" y2="50.044" gradientUnits="userSpaceOnUse"><stop stop-color="#F71B2C"/><stop offset=".461" stop-color="#ED1B8D"/><stop offset="1" stop-color="#FF7027"/></linearGradient><linearGradient id="paint1_linear_262_300" x1="55" y1="66.875" x2="-4.825" y2="62.805" gradientUnits="userSpaceOnUse"><stop stop-color="#F71B2C"/><stop offset=".461" stop-color="#ED1B8D"/><stop offset="1" stop-color="#FF7027"/></linearGradient><clipPath id="clip0_262_300"><path fill="#fff" transform="rotate(-180 27.5 27.5)" d="M0 0h55v55H0z"/></clipPath></defs></svg>