<svg width="27" height="27" fill="none" xmlns="http://www.w3.org/2000/svg"><g clip-path="url(#clip0_245_201)"><path d="M19.785 9.352a.969.969 0 01.036 1.37l-6.345 6.692a2.429 2.429 0 01-1.758.755h-.058a2.428 2.428 0 01-1.777-.842L7.148 14.15a.969.969 0 111.468-1.264l2.735 3.177a.482.482 0 00.355.168.453.453 0 00.364-.15l6.345-6.693a.967.967 0 011.37-.036zm6.309 4.148A12.594 12.594 0 1113.5.906 12.608 12.608 0 0126.094 13.5zm-1.938 0a10.673 10.673 0 00-6.561-9.837 10.56 10.56 0 00-2.642-.335 10.656 10.656 0 00-4.064 20.503A10.657 10.657 0 0024.156 13.5z" fill="url(#paint0_linear_245_201)"/></g><defs><linearGradient id="paint0_linear_245_201" x1=".906" y1="-4.532" x2="28.303" y2="-2.668" gradientUnits="userSpaceOnUse"><stop stop-color="#F71B2C"/><stop offset=".461" stop-color="#ED1B8D"/><stop offset="1" stop-color="#FF7027"/></linearGradient><clipPath id="clip0_245_201"><path fill="#fff" d="M0 0h27v27H0z"/></clipPath></defs></svg>