<svg width="31" height="33" fill="none" xmlns="http://www.w3.org/2000/svg"><g clip-path="url(#clip0_80_440)"><g filter="url(#filter0_ii_80_440)"><path d="M14.455 31.04c.444.239 1.001.24 1.447.005 12.135-6.44 13.049-19.12 13.054-22.727a1.488 1.488 0 00-.895-1.366l-12.143-5.43a1.52 1.52 0 00-1.228-.004L2.586 6.846a1.495 1.495 0 00-.9 1.341c-.067 3.588.603 16.302 12.77 22.853z" fill="url(#paint0_linear_80_440)"/></g><g filter="url(#filter1_dii_80_440)"><path fill-rule="evenodd" clip-rule="evenodd" d="M22.838 10.037c.739.735.742 1.93.008 2.668l-7.888 7.934a1.887 1.887 0 01-2.613.06l-3.663-3.356a1.887 1.887 0 012.55-2.782l2.327 2.132 6.61-6.648a1.887 1.887 0 012.669-.008z" fill="#fff"/></g><g filter="url(#filter2_dii_80_440)"><path fill-rule="evenodd" clip-rule="evenodd" d="M22.838 10.037c.739.735.742 1.93.008 2.668l-7.888 7.934a1.887 1.887 0 01-2.613.06l-3.663-3.356a1.887 1.887 0 012.55-2.782l2.327 2.132 6.61-6.648a1.887 1.887 0 012.669-.008z" fill="#fff"/></g></g><defs><filter id="filter0_ii_80_440" x="1.682" y="-10.115" width="27.274" height="41.335" filterUnits="userSpaceOnUse" color-interpolation-filters="sRGB"><feFlood flood-opacity="0" result="BackgroundImageFix"/><feBlend in="SourceGraphic" in2="BackgroundImageFix" result="shape"/><feColorMatrix in="SourceAlpha" values="0 0 0 0 0 0 0 0 0 0 0 0 0 0 0 0 0 0 127 0" result="hardAlpha"/><feOffset dy="-11.506"/><feGaussianBlur stdDeviation="18.902"/><feComposite in2="hardAlpha" operator="arithmetic" k2="-1" k3="1"/><feColorMatrix values="0 0 0 0 0 0 0 0 0 0 0 0 0 0 0 0 0 0 0.25 0"/><feBlend in2="shape" result="effect1_innerShadow_80_440"/><feColorMatrix in="SourceAlpha" values="0 0 0 0 0 0 0 0 0 0 0 0 0 0 0 0 0 0 127 0" result="hardAlpha"/><feOffset dy="-1"/><feGaussianBlur stdDeviation="2.5"/><feComposite in2="hardAlpha" operator="arithmetic" k2="-1" k3="1"/><feColorMatrix values="0 0 0 0 0.974333 0 0 0 0 1 0 0 0 0 0.954167 0 0 0 0.67 0"/><feBlend in2="effect1_innerShadow_80_440" result="effect2_innerShadow_80_440"/></filter><filter id="filter1_dii_80_440" x="2.071" y="4.488" width="27.324" height="25.706" filterUnits="userSpaceOnUse" color-interpolation-filters="sRGB"><feFlood flood-opacity="0" result="BackgroundImageFix"/><feColorMatrix in="SourceAlpha" values="0 0 0 0 0 0 0 0 0 0 0 0 0 0 0 0 0 0 127 0" result="hardAlpha"/><feOffset dy="3"/><feGaussianBlur stdDeviation="3"/><feColorMatrix values="0 0 0 0 0 0 0 0 0 0 0 0 0 0 0 0 0 0 0.15 0"/><feBlend in2="BackgroundImageFix" result="effect1_dropShadow_80_440"/><feBlend in="SourceGraphic" in2="effect1_dropShadow_80_440" result="shape"/><feColorMatrix in="SourceAlpha" values="0 0 0 0 0 0 0 0 0 0 0 0 0 0 0 0 0 0 127 0" result="hardAlpha"/><feOffset dy="-5"/><feGaussianBlur stdDeviation="2.5"/><feComposite in2="hardAlpha" operator="arithmetic" k2="-1" k3="1"/><feColorMatrix values="0 0 0 0 0 0 0 0 0 0 0 0 0 0 0 0 0 0 0.25 0"/><feBlend in2="shape" result="effect2_innerShadow_80_440"/><feColorMatrix in="SourceAlpha" values="0 0 0 0 0 0 0 0 0 0 0 0 0 0 0 0 0 0 127 0" result="hardAlpha"/><feOffset dy="-2"/><feGaussianBlur stdDeviation="3"/><feComposite in2="hardAlpha" operator="arithmetic" k2="-1" k3="1"/><feColorMatrix values="0 0 0 0 1 0 0 0 0 1 0 0 0 0 1 0 0 0 0.85 0"/><feBlend in2="effect2_innerShadow_80_440" result="effect3_innerShadow_80_440"/></filter><filter id="filter2_dii_80_440" x="2.071" y="6.488" width="27.324" height="23.706" filterUnits="userSpaceOnUse" color-interpolation-filters="sRGB"><feFlood flood-opacity="0" result="BackgroundImageFix"/><feColorMatrix in="SourceAlpha" values="0 0 0 0 0 0 0 0 0 0 0 0 0 0 0 0 0 0 127 0" result="hardAlpha"/><feOffset dy="3"/><feGaussianBlur stdDeviation="3"/><feColorMatrix values="0 0 0 0 0 0 0 0 0 0 0 0 0 0 0 0 0 0 0.15 0"/><feBlend in2="BackgroundImageFix" result="effect1_dropShadow_80_440"/><feBlend in="SourceGraphic" in2="effect1_dropShadow_80_440" result="shape"/><feColorMatrix in="SourceAlpha" values="0 0 0 0 0 0 0 0 0 0 0 0 0 0 0 0 0 0 127 0" result="hardAlpha"/><feOffset dy="-2"/><feGaussianBlur stdDeviation="2.5"/><feComposite in2="hardAlpha" operator="arithmetic" k2="-1" k3="1"/><feColorMatrix values="0 0 0 0 0 0 0 0 0 0 0 0 0 0 0 0 0 0 0.25 0"/><feBlend in2="shape" result="effect2_innerShadow_80_440"/><feColorMatrix in="SourceAlpha" values="0 0 0 0 0 0 0 0 0 0 0 0 0 0 0 0 0 0 127 0" result="hardAlpha"/><feOffset dy="-1"/><feGaussianBlur stdDeviation="1"/><feComposite in2="hardAlpha" operator="arithmetic" k2="-1" k3="1"/><feColorMatrix values="0 0 0 0 1 0 0 0 0 1 0 0 0 0 1 0 0 0 0.85 0"/><feBlend in2="effect2_innerShadow_80_440" result="effect3_innerShadow_80_440"/></filter><linearGradient id="paint0_linear_80_440" x1="1.74" y1="-5.107" x2="31.419" y2="-3.135" gradientUnits="userSpaceOnUse"><stop stop-color="#F71B2C"/><stop offset=".461" stop-color="#ED1B8D"/><stop offset="1" stop-color="#FF7027"/></linearGradient><clipPath id="clip0_80_440"><path fill="#fff" transform="rotate(.243 -205.974 235.999)" d="M0 0h29.131v31.123H0z"/></clipPath></defs></svg>