<svg width="30" height="38" fill="none" xmlns="http://www.w3.org/2000/svg"><g clip-path="url(#clip0_205_659)"><path d="M9.5 15.333h1.833a1.833 1.833 0 000-3.666H9.5a1.833 1.833 0 000 3.666zM9.5 19a1.833 1.833 0 100 3.667h11a1.833 1.833 0 100-3.667h-11zm20.167-5.61a2.402 2.402 0 00-.11-.495v-.165a1.962 1.962 0 00-.349-.513l-11-11a1.963 1.963 0 00-.513-.349.587.587 0 00-.165 0 1.613 1.613 0 00-.605-.201H5.833a5.5 5.5 0 00-5.5 5.5v25.666a5.5 5.5 0 005.5 5.5h18.334a5.5 5.5 0 005.5-5.5V13.5v-.11zm-11-6.472l4.748 4.749H20.5a1.833 1.833 0 01-1.833-1.834V6.918zM26 31.833a1.834 1.834 0 01-1.833 1.834H5.833A1.833 1.833 0 014 31.833V6.167a1.833 1.833 0 011.833-1.834H15v5.5a5.5 5.5 0 005.5 5.5H26v16.5zm-5.5-5.5h-11A1.833 1.833 0 109.5 30h11a1.833 1.833 0 000-3.667z" fill="#E1E1FF"/></g><defs><clipPath id="clip0_205_659"><path fill="#fff" d="M0 0h30v38H0z"/></clipPath></defs></svg>