<svg width="20" height="20" fill="none" xmlns="http://www.w3.org/2000/svg"><g clip-path="url(#clip0_80_450)"><path d="M16.667 3.333H3.333c-.916 0-1.666.75-1.666 1.667v10c0 .917.75 1.667 1.666 1.667h13.334c.916 0 1.666-.75 1.666-1.667V5c0-.917-.75-1.667-1.666-1.667zm-.334 3.542l-5.45 3.409a1.65 1.65 0 01-1.766 0l-5.45-3.409a.708.708 0 11.75-1.2L10 9.167l5.583-3.492a.708.708 0 11.75 1.2z" fill="#ECE9FF"/></g><defs><clipPath id="clip0_80_450"><path fill="#fff" d="M0 0h20v20H0z"/></clipPath></defs></svg>