<svg width="38" height="38" fill="none" xmlns="http://www.w3.org/2000/svg"><g clip-path="url(#clip0_226_1689)"><path d="M26.125 4.75c-2.755 0-5.399 1.282-7.125 3.301-1.726-2.019-4.37-3.301-7.125-3.301-4.884 0-8.708 3.824-8.708 8.708 0 5.977 5.383 10.862 13.537 18.264L19 33.804l2.296-2.082c8.154-7.402 13.538-12.287 13.538-18.264 0-4.884-3.824-8.708-8.709-8.708zm-6.958 24.629l-.167.15-.166-.15c-7.529-6.832-12.5-11.345-12.5-15.92 0-3.16 2.383-5.542 5.541-5.542 2.439 0 4.814 1.575 5.645 3.736h2.953c.839-2.16 3.214-3.736 5.652-3.736 3.16 0 5.542 2.383 5.542 5.541 0 4.576-4.972 9.089-12.5 15.92z" fill="#E1E1FF"/></g><defs><clipPath id="clip0_226_1689"><path fill="#fff" d="M0 0h38v38H0z"/></clipPath></defs></svg>