<svg width="21" height="21" fill="none" xmlns="http://www.w3.org/2000/svg"><path d="M17.212.92a2.865 2.865 0 00-2.029.833l-1.104 1.08h-10.5A2.68 2.68 0 00.915 5.493v11.928a2.68 2.68 0 002.662 2.662h11.928a2.68 2.68 0 002.662-2.662v-10.5l1.08-1.102A2.869 2.869 0 0017.211.916V.92zm.003 1.894c.243 0 .486.098.681.29a.943.943 0 010 1.358l-.007.007-7.787 7.947H8.583v-1.514l7.947-7.787.007-.008a.96.96 0 01.677-.29v-.003zM3.578 4.748h8.548L6.95 9.82a.96.96 0 00-.282.677v2.88c0 .529.427.953.956.956h2.88a.95.95 0 00.677-.282l5.07-5.173v8.545a.725.725 0 01-.745.746H3.578a.723.723 0 01-.746-.746V5.494a.724.724 0 01.746-.742v-.004z" fill="#fff"/></svg>