<svg width="42" height="42" fill="none" xmlns="http://www.w3.org/2000/svg"><path d="M12.25 17.5a8.07 8.07 0 01.35-1.75c.169-.61.41-1.197.718-1.75a2.712 2.712 0 112.66-2.8 9.014 9.014 0 011.61-.893A10.189 10.189 0 0119.25 9.8a6.195 6.195 0 10-7 7.7zm1.05 7c.49.01.977.075 1.452.192A9.222 9.222 0 0112.6 21a9.782 9.782 0 00-9.1 9.765 1.75 1.75 0 001.75 1.75h3.867c.178-.6.4-1.184.665-1.75.288-.608.622-1.193.998-1.75h-3.5A6.265 6.265 0 0113.3 24.5zm12.758-13.265a2.695 2.695 0 112.677 2.922c.308.553.549 1.14.718 1.75a8.07 8.07 0 01.35 1.75 6.196 6.196 0 00.77-11.995A6.195 6.195 0 0022.75 9.8a9.17 9.17 0 011.75.525c.546.254 1.068.56 1.558.91zM29.4 21a9.383 9.383 0 01-.735 1.75 8.75 8.75 0 01-1.435 1.96 6.123 6.123 0 011.505-.21 6.283 6.283 0 016.02 4.515h-3.5c.376.557.71 1.142.997 1.75.266.566.488 1.15.665 1.75h3.833a1.75 1.75 0 001.75-1.75A9.765 9.765 0 0029.4 21zm-13.65-5.828c-.447.707-.74 1.5-.857 2.328-.063.34-.098.686-.106 1.032a6.37 6.37 0 00.7 2.8 6.213 6.213 0 002.713 2.695 6.108 6.108 0 002.695.7c.05.038.091.086.122.14l.123-.157a5.933 5.933 0 002.66-.683 6.177 6.177 0 002.695-2.695 6.055 6.055 0 00.717-2.8 6.666 6.666 0 00-.104-1.05 6.44 6.44 0 00-.858-2.345 6 6 0 00-1.33-1.487 6.493 6.493 0 00-3.92-1.4 6.722 6.722 0 00-1.593.227 6.335 6.335 0 00-2.222 1.12 5.81 5.81 0 00-1.435 1.575zm5.25.578a2.713 2.713 0 110 5.426 2.713 2.713 0 010-5.426zm8.225 15.015a10.496 10.496 0 00-1.418-1.75 9.87 9.87 0 00-3.814-2.293 8.594 8.594 0 00-1.925-.472 9.183 9.183 0 00-1.068 0h-1.032a9.892 9.892 0 00-1.925.402 9.87 9.87 0 00-3.816 2.293c-.533.53-1.009 1.117-1.417 1.75-.35.555-.648 1.141-.893 1.75a9.712 9.712 0 00-.647 3.5 1.75 1.75 0 001.75 1.75h16.03a1.75 1.75 0 001.75-1.75 9.712 9.712 0 00-.648-3.5c-.259-.586-.57-1.148-.927-1.68zm-13.475 1.75a6.423 6.423 0 011.75-1.75 5.355 5.355 0 011.383-.683 6.088 6.088 0 011.75-.315h.402c.596.02 1.185.126 1.75.315.473.179.924.407 1.348.683a6.125 6.125 0 012.642 3.5H14.98a6.405 6.405 0 01.77-1.75z" fill="#E1E1FF"/></svg>