<svg width="40" height="40" fill="none" xmlns="http://www.w3.org/2000/svg"><path d="M33.333 6.667H6.666A3.333 3.333 0 003.333 10v13.333a1.667 1.667 0 103.333 0V10h26.667v20H9.016L15 24.017l2.15 2.166a1.666 1.666 0 002.366 0l7.15-7.166v2.65a1.667 1.667 0 103.334 0V15a1.668 1.668 0 00-.134-.633 1.667 1.667 0 00-.9-.9c-.2-.086-.415-.131-.633-.134h-6.667a1.667 1.667 0 000 3.334h2.65l-5.983 5.983-2.15-2.167a1.666 1.666 0 00-2.367 0l-10 10c-.151.159-.27.346-.35.55-.166.406-.166.861 0 1.267.17.407.493.731.9.9.2.085.416.13.634.133h28.333A3.333 3.333 0 0036.666 30V10a3.333 3.333 0 00-3.333-3.333z" fill="#E1E1FF"/></svg>