<svg width="52" height="52" fill="none" xmlns="http://www.w3.org/2000/svg"><g fill-rule="evenodd" clip-rule="evenodd" fill="#E1E1FF"><path d="M40.169 7.384c.285-.222.636-.342.998-.342H45.5c.897 0 1.625.727 1.625 1.625V39c0 .898-.728 1.625-1.625 1.625h-4.333c-.362 0-.713-.12-.998-.342l-9.31-7.241H13a8.125 8.125 0 01-8.125-8.125V22.75A8.125 8.125 0 0113 14.625h2.167a1.625 1.625 0 010 3.25H13a4.875 4.875 0 00-4.875 4.875v2.167A4.875 4.875 0 0013 29.792h18.417c.361 0 .712.12.997.342l9.31 7.241h2.151V10.292h-2.15l-9.31 7.24a1.625 1.625 0 01-.998.343h-7.584a1.625 1.625 0 010-3.25h7.026l9.31-7.241z"/><path d="M11.709 30.43A1.625 1.625 0 0113 29.792h8.667c.732 0 1.375.49 1.567 1.197l2.131 7.812c.846 3.1-1.489 6.157-4.703 6.157h-1.93a4.875 4.875 0 01-4.703-3.592l-2.597-9.522a1.625 1.625 0 01.277-1.414zm3.418 2.612l2.038 7.469a1.625 1.625 0 001.567 1.197h1.93a1.625 1.625 0 001.567-2.052l-1.803-6.614h-5.298z"/></g></svg>