<svg width="17" height="17" fill="none" xmlns="http://www.w3.org/2000/svg"><g fill="#fff" clip-path="url(#clip0_65_45)"><path d="M3.863 5.656H.21v10.968h3.653V5.656zM15.85 6.658C15.081 5.82 14.066 5.4 12.805 5.4c-.465 0-.888.058-1.268.172-.38.114-.7.275-.963.481-.261.207-.47.399-.625.576a4.75 4.75 0 00-.432.585v-1.56H5.877l.011.532c.008.354.011 1.446.011 3.276 0 1.83-.007 4.217-.022 7.16h3.641v-6.12c0-.376.04-.675.122-.896a2.35 2.35 0 01.703-.946c.314-.255.703-.382 1.168-.382.634 0 1.1.22 1.4.658.299.44.448 1.046.448 1.82v5.867H17v-6.286c0-1.617-.383-2.843-1.15-3.68zM2.059.376C1.446.376.95.556.57.913.19 1.271 0 1.723 0 2.27c0 .539.184.989.553 1.35.37.362.856.543 1.461.543h.022c.62 0 1.12-.181 1.5-.543.38-.361.566-.811.559-1.35-.007-.546-.196-.998-.564-1.356C3.16.555 2.67.376 2.059.376z"/></g><defs><clipPath id="clip0_65_45"><path fill="#fff" d="M0 0h17v17H0z"/></clipPath></defs></svg>