<svg width="36" height="40" fill="none" xmlns="http://www.w3.org/2000/svg"><g clip-path="url(#clip0_205_675)"><path fill-rule="evenodd" clip-rule="evenodd" d="M8.253 20.043H6.977a4 4 0 00-3.88 3.03L.225 34.56a4 4 0 003.88 4.97h27.79a4 4 0 003.88-4.97l-2.872-11.488a4 4 0 00-3.88-3.03h-1.276a45.582 45.582 0 01-1.939 4h3.215l2.872 11.488H4.105l2.872-11.488h3.215a45.568 45.568 0 01-1.939-4z" fill="#E1E1FF"/><path d="M27 12c0 3.193-1.434 7.226-3.396 11.175-1.88 3.783-4.12 7.242-5.604 9.395-1.485-2.153-3.723-5.612-5.604-9.395C10.434 19.226 9 15.193 9 12c0-5.69 4.19-10 9-10s9 4.31 9 10z" stroke="#E1E1FF" stroke-width="4" stroke-linecap="round"/><circle cx="18" cy="13" r="3" fill="#E1E1FF"/></g><defs><clipPath id="clip0_205_675"><path fill="#fff" d="M0 0h36v40H0z"/></clipPath></defs></svg>