<svg width="40" height="40" fill="none" xmlns="http://www.w3.org/2000/svg"><path d="M36.667 28.333H3.333a1.667 1.667 0 100 3.334h33.334a1.666 1.666 0 100-3.334zm0 6.667H3.333a1.667 1.667 0 000 3.333h33.334a1.667 1.667 0 100-3.333zM10 11.667A1.667 1.667 0 1010 15a1.667 1.667 0 000-3.334zm23.333-10H6.667a5 5 0 00-5 5V20a5 5 0 005 5h26.666a5 5 0 005-5V6.667a5 5 0 00-5-5zM35 20a1.667 1.667 0 01-1.667 1.667H6.667A1.666 1.666 0 015 20V6.667A1.667 1.667 0 016.667 5h26.666A1.667 1.667 0 0135 6.667V20zM20 8.333a5 5 0 100 10.001 5 5 0 000-10zM20 15a1.667 1.667 0 110-3.334A1.667 1.667 0 0120 15zm10-3.333A1.667 1.667 0 1030 15a1.667 1.667 0 000-3.334z" fill="#E1E1FF"/></svg>