<svg width="52" height="52" fill="none" xmlns="http://www.w3.org/2000/svg"><g fill="#E1E1FF"><path d="M45.5 4.333h-39A2.167 2.167 0 004.333 6.5v30.333A2.167 2.167 0 006.5 39h10.833v4.333h-2.166a2.167 2.167 0 000 4.334h21.666a2.166 2.166 0 100-4.334h-2.166V39H45.5a2.167 2.167 0 002.167-2.167V6.5A2.167 2.167 0 0045.5 4.333zm-15.167 39h-8.666V39h8.666v4.333zm13-8.666H8.667v-26h34.666v26z"/><path d="M15.167 30.333a2.167 2.167 0 002.166-2.166v-6.5a2.166 2.166 0 10-4.333 0v6.5a2.167 2.167 0 002.167 2.166zm10.833 0a2.167 2.167 0 002.167-2.166V17.333a2.167 2.167 0 00-4.334 0v10.834A2.167 2.167 0 0026 30.333zm10.833 0A2.167 2.167 0 0039 28.167V13a2.167 2.167 0 10-4.333 0v15.167a2.166 2.166 0 002.166 2.166z"/></g></svg>