<svg width="12" height="20" fill="none" xmlns="http://www.w3.org/2000/svg"><g clip-path="url(#clip0_65_29)"><path d="M6 10.124a5.056 5.056 0 005.05-5.062A5.056 5.056 0 006 0 5.055 5.055 0 00.95 5.061 5.055 5.055 0 006 10.124zm0-7.552a2.488 2.488 0 012.484 2.49A2.488 2.488 0 016 7.552a2.488 2.488 0 01-2.484-2.49A2.487 2.487 0 016 2.571zm5.82 8.169c-.285-.575-1.074-1.051-2.123-.223C8.279 11.638 6 11.638 6 11.638s-2.278 0-3.696-1.12c-1.05-.828-1.84-.35-2.124.223-.497 1 .065 1.485 1.332 2.3 1.082.696 2.569.957 3.53 1.054l-.802.804-2.975 2.983a1.162 1.162 0 000 1.641l.136.137a1.155 1.155 0 001.637 0l2.975-2.983c1.13 1.131 2.22 2.224 2.976 2.983a1.155 1.155 0 001.637 0l.136-.137a1.162 1.162 0 000-1.641l-2.975-2.983-.804-.806c.96-.1 2.432-.36 3.506-1.051 1.266-.816 1.827-1.3 1.33-2.301z" fill="#fff"/></g><defs><clipPath id="clip0_65_29"><path fill="#fff" d="M0 0h12v20H0z"/></clipPath></defs></svg>