<svg width="52" height="40" fill="none" xmlns="http://www.w3.org/2000/svg"><g clip-path="url(#clip0_175_554)" fill="#E1E1FF"><path d="M47.938.5H10.562A4.067 4.067 0 006.5 4.563a1.625 1.625 0 003.25 0 .813.813 0 01.813-.813h37.374a.813.813 0 01.813.813v5.687h-3.365a3.246 3.246 0 00-3.135-2.438h-39A3.253 3.253 0 000 11.063V36.25a3.253 3.253 0 003.25 3.25h39a3.253 3.253 0 003.25-3.25v-4.063h2.438A4.067 4.067 0 0052 28.125V4.562A4.067 4.067 0 0047.937.5zm.812 18.688H45.5V13.5h3.25v5.688zM3.25 36.25V11.062h39l.002 25.188H3.25zm44.688-7.313H45.5v-6.5h3.25v5.688a.813.813 0 01-.813.813z"/><path d="M8.125 26.5h7.8a1.625 1.625 0 001.625-1.625v-6.5a1.625 1.625 0 00-1.625-1.625h-7.8A1.625 1.625 0 006.5 18.375v6.5A1.625 1.625 0 008.125 26.5zM9.75 20h4.55v3.25H9.75V20zm17.063 9.75H8.125a1.625 1.625 0 100 3.25h18.688a1.625 1.625 0 100-3.25zM37.375 17.563a1.625 1.625 0 100-3.25 1.625 1.625 0 000 3.25zM37.375 29.75h-4.063a1.625 1.625 0 100 3.25h4.063a1.625 1.625 0 100-3.25z"/></g><defs><clipPath id="clip0_175_554"><path fill="#fff" d="M0 0h52v40H0z"/></clipPath></defs></svg>