<svg width="52" height="52" fill="none" xmlns="http://www.w3.org/2000/svg"><path d="M39.78 3.936a3.874 3.874 0 00-2.74 1.126l-.965.97a1.32 1.32 0 00-.112.107l-.483.483a1.302 1.302 0 00-.227.289l-2.155 2.353a1.305 1.305 0 00-.039.05l-7.054 7.053-11.57-11.57a2.574 2.574 0 00-1.825-.728 2.574 2.574 0 00-1.83.728L4.54 11.04a2.647 2.647 0 000 3.66l.005.006 11.679 11.437-7.179 7.179a1.3 1.3 0 00-.92.855l-3.9 11.96a1.3 1.3 0 001.638 1.638l11.96-3.9a1.3 1.3 0 00.66-.497l7.491-7.49 11.32 11.567.006.005a2.647 2.647 0 003.66 0l6.24-6.24a2.642 2.642 0 000-3.658l-11.45-11.45 7.439-7.439c.13-.13.23-.286.296-.457l1.604-1.475a1.298 1.298 0 00.291-.221l.481-.483c.044-.038.085-.079.123-.122l.954-.955a3.9 3.9 0 000-5.48l-4.42-4.418a3.86 3.86 0 00-2.735-1.126h-.003zm-.003 2.528c.305 0 .614.148.903.436l4.42 4.42c.58.58.58 1.222 0 1.802l-.98.986-.016.015-.063.055-1.833 1.677-6.063-6.063 1.732-1.896 1-.996c.292-.288.594-.436.9-.436zm-27.17.182l11.56 11.56-6.1 6.099-1.903-1.872 4.446-4.446-2.574-2.574-4.474 4.477-2.678-2.626 1.804-1.802-2.574-2.569-1.828 1.828-1.895-1.854 6.219-6.219-.003-.002zm21.458 5.337l1.625 1.625-22.68 22.68-1.625-1.625 22.68-22.68zm4.2 4.202l1.869 1.867-22.68 22.68-1.87-1.87 22.68-22.677zM33.911 27.95l11.44 11.44-6.22 6.222-1.64-1.672 4.386-4.386-2.574-2.574-4.357 4.36-2.803-2.863 1.815-1.812-2.574-2.574-1.784 1.781-1.789-1.822 6.1-6.1zM9.94 36.998l5.062 5.065-6.656 2.168-.577-.58 2.168-6.653h.003z" fill="#E1E1FF"/></svg>