<svg width="40" height="40" fill="none" xmlns="http://www.w3.org/2000/svg"><g fill="#E1E1FF"><path d="M24 24.167h-8c-.833 0-1.5.333-2 1-.5.5-.667 1.333-.667 2.166l1.334 9.5c.166 1.334 1.333 2.334 2.666 2.334h5.334c1.333 0 2.5-1 2.666-2.334l1.334-9.5c.166-.833-.167-1.5-.667-2.166-.5-.667-1.333-1-2-1zm-4-.667c2.833 0 5.167-2.333 5.167-5.167 0-2.833-2.334-5.166-5.167-5.166-2.833 0-5.167 2.333-5.167 5.166 0 2.834 2.334 5.167 5.167 5.167z"/><path d="M28.5 9.833c-4.667-4.666-12.333-4.666-17 0-2.167 2.334-3.5 5.334-3.5 8.5 0 3.167 1.167 6.167 3.5 8.5a.806.806 0 001.167 0 .806.806 0 000-1.166c-2-2-3-4.5-3-7.334 0-2.833 1-5.333 3-7.333 4-4 10.666-4 14.666 0s4 10.667 0 14.667a.806.806 0 000 1.166c.167.167.334.167.5.167.167 0 .334 0 .5-.167 4.834-4.666 4.834-12.333.167-17z"/><path d="M32.333 6A17.403 17.403 0 007.667 6a17.403 17.403 0 000 24.667.806.806 0 001.166 0 .806.806 0 000-1.167c-6.166-6.167-6.166-16.167 0-22.5C15 .833 25 .833 31.167 7c6.166 6.167 6.166 16.333 0 22.5a.806.806 0 000 1.167c.166.166.333.166.5.166.166 0 .333 0 .5-.166 7-6.834 7-17.834.166-24.667z"/></g></svg>