<svg width="22" height="22" fill="none" xmlns="http://www.w3.org/2000/svg"><path d="M18.774 14.196l-1.512-1.512a2.42 2.42 0 00-3.395-.015 1.48 1.48 0 01-1.876.184 10.33 10.33 0 01-2.847-2.842 1.5 1.5 0 01.195-1.883 2.421 2.421 0 00-.021-3.384L7.805 3.23a2.416 2.416 0 00-3.41 0l-.436.436C1.691 5.936 1.86 10.706 6.581 15.423c2.846 2.847 5.71 4.04 8.034 4.04a5.157 5.157 0 003.725-1.418l.436-.435a2.415 2.415 0 00-.002-3.414zm-.972 2.441l-.436.436c-1.787 1.788-5.733 1.461-9.814-2.621-4.082-4.082-4.41-8.03-2.622-9.818l.433-.435a1.039 1.039 0 011.466 0L8.342 5.71a1.039 1.039 0 01.014 1.45 2.874 2.874 0 00-.365 3.603 11.693 11.693 0 003.24 3.235 2.873 2.873 0 003.596-.356 1.039 1.039 0 011.457.01l1.512 1.512a1.039 1.039 0 01.006 1.473z" fill="#DAE3FF"/></svg>