<svg width="38" height="38" fill="none" xmlns="http://www.w3.org/2000/svg"><g clip-path="url(#clip0_226_1696)"><path d="M37.876 1.611A1.678 1.678 0 0036.347.083c-10.45-.826-17.926 4.254-22.593 10.615-2.561-.826-5.328-.537-7.848.867-2.437 1.363-4.46 3.676-5.783 6.485-.289.66-.165 1.404.372 1.9.496.496 1.28.578 1.9.248 2.644-1.404 5.618-1.115 7.394.66l7.27 7.27.04.042c1.777 1.776 2.066 4.75.661 7.393a1.69 1.69 0 00.248 1.9c.33.33.744.496 1.198.496.248 0 .496-.042.702-.165 2.809-1.322 5.122-3.387 6.485-5.783 1.446-2.52 1.735-5.287.867-7.89 1.86-1.362 3.553-2.85 4.957-4.501 4.378-4.998 6.278-11.07 5.659-18.01zM5.534 16.026c1.776-1.735 4.007-2.809 6.361-2.396-.66 1.157-1.198 2.314-1.693 3.47a8.655 8.655 0 00-4.668-1.074zm16.48 16.44c.042-1.694-.33-3.305-1.073-4.71a33.694 33.694 0 003.47-1.693c.412 2.355-.62 4.626-2.396 6.402zm-3.304-7.394l-5.824-5.824C15.82 11.44 23.09 3.098 34.697 3.304c.371 13.837-11.029 19.827-15.986 21.768zm10.698-16.48c.496.495.785 1.197.785 1.9 0 .702-.29 1.404-.785 1.9a2.725 2.725 0 01-1.9.784c-.702 0-1.404-.248-1.9-.785-.495-.537-.785-1.197-.785-1.9 0-.702.29-1.404.785-1.9a2.724 2.724 0 011.9-.784c.702 0 1.405.289 1.9.784zM6.154 25.773c-1.9 1.9-1.983 5.7-1.983 6.444 0 .908.744 1.652 1.652 1.652h.042c.867 0 4.502-.124 6.36-1.983 1.157-1.157 1.405-2.354 1.405-3.14 0-1.114-.454-2.188-1.322-3.056-2.065-2.106-4.667-1.445-6.154.083zm3.759 3.759c-.413.413-1.322.702-2.272.826.165-.95.454-1.859.826-2.23.29-.29.537-.455.826-.455.207 0 .454.124.702.372.248.248.372.495.372.702-.041.248-.248.578-.454.785z" fill="#E1E1FF"/></g><defs><clipPath id="clip0_226_1696"><path fill="#fff" d="M0 0h38v38H0z"/></clipPath></defs></svg>