<svg width="52" height="52" fill="none" xmlns="http://www.w3.org/2000/svg"><g clip-path="url(#clip0_175_545)"><path d="M43.308-.002c-.452.007-.883.19-1.202.511l-3.467 3.467a1.734 1.734 0 00-.511 1.229v6.211l-.948.948a22.54 22.54 0 00-14.65-5.433C10.105 6.93-.004 17.039-.004 29.463c0 12.423 10.11 22.531 22.534 22.531 12.425 0 22.532-10.108 22.532-22.531 0-4.136-1.136-8.188-3.288-11.72a1.734 1.734 0 10-2.956 1.804 19.04 19.04 0 012.777 9.916c0 10.55-8.513 19.065-19.065 19.065-10.551 0-19.068-8.515-19.068-19.065S11.98 10.4 22.53 10.4c4.474 0 8.78 1.582 12.192 4.42l-2.462 2.462a15.593 15.593 0 00-9.73-3.416c-8.595 0-15.6 7.001-15.6 15.596 0 8.594 7.005 15.595 15.6 15.595 8.596 0 15.598-7.001 15.598-15.595 0-2.21-.463-4.397-1.371-6.412a1.737 1.737 0 00-3.327.77c.01.231.068.457.168.665a12.073 12.073 0 011.06 4.977c0 6.72-5.406 12.142-12.128 12.142a12.116 12.116 0 01-12.134-12.142c0-6.721 5.412-12.13 12.134-12.13 2.631 0 5.167.869 7.252 2.424l-2.478 2.478A8.672 8.672 0 0022.53 20.8c-4.766 0-8.664 3.897-8.664 8.663 0 4.765 3.898 8.676 8.664 8.676s8.66-3.91 8.66-8.676a1.732 1.732 0 00-2.425-1.742 1.735 1.735 0 00-1.028 1.742 5.185 5.185 0 01-5.207 5.206 5.177 5.177 0 01-5.197-5.206 5.165 5.165 0 017.418-4.679l-3.45 3.45a1.736 1.736 0 102.455 2.457l4.6-4.6c.25-.148.459-.357.607-.606l4.296-4.296c.25-.148.458-.356.606-.606l4.483-4.482a1.73 1.73 0 00.227-.226l2.007-2.008h6.22a1.733 1.733 0 001.215-.511l3.47-3.47a1.733 1.733 0 000-2.444l-3.273-3.277a1.735 1.735 0 00-.383-.386L44.564.51A1.734 1.734 0 0043.308 0zm.027 4.184l1.015 1.016-2.755 2.755v-2.03l1.74-1.74zm3.467 3.467l1.012 1.012-1.727 1.74H44.05l2.753-2.752z" fill="#E1E1FF"/></g><defs><clipPath id="clip0_175_545"><path fill="#fff" d="M0 0h52v52H0z"/></clipPath></defs></svg>