<svg width="52" height="52" fill="none" xmlns="http://www.w3.org/2000/svg"><g fill="#E1E1FF"><path d="M48.303 1.227H3.697A3.7 3.7 0 000 4.924v42.16a3.7 3.7 0 003.697 3.697h44.606A3.7 3.7 0 0052 47.084V4.924a3.7 3.7 0 00-3.697-3.697zm1.365 45.85c0 .755-.61 1.364-1.365 1.364H3.697c-.756 0-1.365-.61-1.365-1.365V10.831h47.344v36.245h-.008zm0-38.578H2.332V4.924c0-.756.61-1.365 1.365-1.365h44.606c.756 0 1.365.61 1.365 1.365v3.575z"/><path d="M5.411 4.867c-.65 0-1.17.52-1.17 1.162a1.169 1.169 0 001.992.821 1.162 1.162 0 00-.822-1.983zm4.111 0c-.65 0-1.17.52-1.17 1.162a1.169 1.169 0 001.992.821 1.162 1.162 0 00-.822-1.983zm4.112 0c-.65 0-1.17.52-1.17 1.162 0 .642.528 1.162 1.17 1.162.642 0 1.162-.52 1.162-1.162a1.151 1.151 0 00-1.162-1.162zm9.148 28.608h8.662c.642 0 1.162-.52 1.162-1.162v-8.67c0-.641-.52-1.161-1.162-1.161h-8.662c-.641 0-1.161.52-1.161 1.162v8.66c0 .643.52 1.17 1.162 1.17zm1.162-8.661h6.33v6.33h-6.33v-6.33zm12.204 8.66h8.661c.642 0 1.162-.52 1.162-1.16v-8.67c0-.642-.52-1.162-1.162-1.162h-8.66c-.643 0-1.163.52-1.163 1.162v8.66c0 .643.52 1.17 1.162 1.17zm1.17-8.66h6.33v6.33h-6.33v-6.33zm-5.655 10.083h-9.1a1.162 1.162 0 100 2.324h9.092c.642 0 1.162-.52 1.162-1.162 0-.642-.512-1.162-1.154-1.162zm0 4.274h-9.1a1.162 1.162 0 100 2.323h9.092c.642 0 1.162-.52 1.162-1.162 0-.641-.512-1.161-1.154-1.161zm0 4.273h-9.1a1.162 1.162 0 100 2.324h9.092c.642 0 1.162-.52 1.162-1.162 0-.642-.512-1.162-1.154-1.162zm13.366-8.547h-9.1a1.162 1.162 0 000 2.324h9.092c.642 0 1.161-.52 1.161-1.162 0-.642-.511-1.162-1.153-1.162zm0 4.274h-9.1a1.162 1.162 0 000 2.323h9.092c.642 0 1.161-.52 1.161-1.162 0-.641-.511-1.161-1.153-1.161zm0 4.273h-9.1a1.162 1.162 0 000 2.324h9.092c.642 0 1.161-.52 1.161-1.162 0-.642-.511-1.162-1.153-1.162zm-32.923-8.62a5.857 5.857 0 00-5.85 5.85 5.857 5.857 0 005.85 5.85 5.857 5.857 0 005.85-5.85 5.857 5.857 0 00-5.85-5.85zm0 9.368a3.52 3.52 0 01-3.518-3.518 3.52 3.52 0 016.009-2.489 3.527 3.527 0 011.036 2.489 3.532 3.532 0 01-3.527 3.518zM5.021 31.273c.008.04.016.073.025.106.008.032.016.073.032.105l.049.106c.016.032.032.065.057.097.024.033.048.065.073.09.024.024.04.057.073.081.032.033.065.065.106.09a.354.354 0 00.056.048s.009 0 .009.008c.107.074.225.131.349.17.097.025.203.05.309.05H18.28a.984.984 0 00.374-.073.858.858 0 00.284-.147s.009 0 .009-.008a.354.354 0 00.056-.049c.033-.032.073-.056.106-.089a.578.578 0 00.065-.081c.024-.033.049-.057.073-.098a.6.6 0 01.057-.097c.016-.033.032-.065.049-.106.016-.032.024-.073.032-.105.008-.033.025-.074.033-.106.008-.04.008-.09.016-.13 0-.024.008-.057.008-.081V14.219c0-.025-.008-.057-.008-.082a.713.713 0 00-.049-.235c-.008-.033-.016-.073-.032-.106-.017-.032-.033-.065-.049-.105a.608.608 0 00-.057-.098c-.024-.032-.049-.065-.073-.09-.024-.024-.04-.056-.073-.08a.557.557 0 00-.106-.09.353.353 0 00-.057-.049c-.008 0-.008-.008-.016-.008l-.122-.073a.255.255 0 00-.081-.04c-.032-.017-.073-.025-.114-.041-.032-.008-.073-.025-.105-.033-.033-.008-.065-.008-.098-.016a.712.712 0 00-.13-.016H6.143c-.041 0-.09.008-.13.016-.033.008-.066.008-.098.016-.033.008-.065.025-.098.033-.04.016-.08.024-.113.04a.33.33 0 00-.073.041c-.041.024-.09.049-.13.073-.009 0-.009.008-.017.008a.353.353 0 00-.057.05c-.032.032-.073.056-.105.088-.025.025-.049.057-.073.082-.025.032-.049.057-.073.09a.606.606 0 01-.057.097 1.326 1.326 0 00-.049.105c-.016.033-.024.073-.033.106-.008.032-.024.073-.024.105-.008.041-.008.09-.016.13 0 .025-.008.05-.008.082v16.843c0 .024.008.057.008.081l.024.13zM8.434 29.9l3.786-5.265 3.786 5.265H8.434zm8.685-2.446l-3.46-4.81 3.46-4.81v9.62zm-1.105-12.073l-3.786 5.265-3.786-5.265h7.572zM7.33 17.826l3.461 4.81-3.461 4.81v-9.62zm15.453-2.746H45.03a1.162 1.162 0 100-2.324H22.782a1.162 1.162 0 100 2.324zm-.43 4.631h9.685a1.164 1.164 0 001.162-1.162 1.162 1.162 0 00-1.162-1.162h-9.685c-.642 0-1.162.52-1.162 1.162 0 .642.512 1.162 1.162 1.162zm13.796-2.332a1.162 1.162 0 100 2.324h9.693a1.162 1.162 0 100-2.324h-9.693zM44.81 4.867h-8.157a1.162 1.162 0 000 2.324h8.166c.641 0 1.161-.52 1.161-1.162a1.174 1.174 0 00-1.17-1.162z"/></g></svg>